<svg width="212" height="44" fill="none" xmlns="http://www.w3.org/2000/svg"><path d="M49.102 26.483c.097 1.662 1.27 3.276 3.813 3.276 1.907 0 2.836-1.027 2.836-2.103 0-.88-.586-1.613-2.396-2.004l-2.787-.636c-5.183-1.125-7.236-4.057-7.236-7.48 0-4.45 3.911-8.067 9.339-8.067 7.041 0 9.486 4.4 9.73 7.236l-6.16 1.125c-.196-1.614-1.223-2.983-3.472-2.983-1.419 0-2.64.832-2.64 2.103 0 1.026.83 1.613 1.906 1.808l3.227.636c5.037 1.027 7.482 4.058 7.482 7.626 0 4.157-3.178 8.214-9.682 8.214-7.628 0-10.072-4.938-10.268-7.627l6.308-1.124zm22.73-4.107c0 3.863 2.592 6.014 5.672 6.014 2.885 0 4.499-1.81 5.037-3.618l6.552 2.004c-1.076 4.254-5.086 8.458-11.589 8.458-7.236 0-13.055-5.329-13.055-12.858 0-7.578 5.672-12.907 12.81-12.907 6.7 0 10.611 4.107 11.687 8.458l-6.65 2.005c-.538-1.858-2.005-3.618-4.89-3.618-3.08 0-5.574 2.15-5.574 6.062zm36.849-.049c0-4.106-2.641-6.013-5.477-6.013-2.787 0-5.476 1.907-5.476 6.013 0 4.058 2.689 6.063 5.476 6.063 2.836 0 5.477-1.956 5.477-6.063zm7.432 0c0 7.529-5.623 12.907-12.909 12.907-7.236 0-12.908-5.378-12.908-12.907 0-7.53 5.672-12.858 12.908-12.858 7.286 0 12.909 5.329 12.909 12.858zm16.244 12.165h-7.481l-9.975-24.298h8.068l5.623 15.106 5.183-15.106h7.823l-9.241 24.298zm25.427-15.049c-.098-1.858-1.369-4.107-4.89-4.107-3.129 0-4.694 2.297-4.841 4.107h9.731zm6.748 8.067c-1.174 4.203-5.037 7.724-11.198 7.724-6.698 0-12.664-4.792-12.664-12.956 0-7.822 5.819-12.809 12.127-12.809 7.53 0 12.175 4.645 12.175 12.467 0 1.027-.098 2.151-.147 2.298h-16.918c.146 2.738 2.64 4.694 5.525 4.694 2.69 0 4.206-1.272 4.89-3.179l6.21 1.76zm18.678-9.996c-.831-.197-1.613-.245-2.347-.245-2.982 0-5.672 1.76-5.672 6.6v10.609h-7.432V10.18h7.188v3.275c1.271-2.737 4.352-3.52 6.308-3.52.733 0 1.466.098 1.955.245v7.334zm5.724 26.316l5.525-12.613-10.219-21.023h8.312l5.917 13.005 5.379-13.005h7.872L196.757 43.83h-7.823zM22.71 17.28c0-5.71-4.594-10.337-10.303-10.337H2.07V.05h10.337c9.99 0 17.866 7.301 17.866 17.229 0 9.928-7.877 17.228-17.866 17.228L2.07 34.51v-6.892h10.337c5.71 0 10.303-4.628 10.303-10.337zM1.979 12.86c-.022.027-.016.025.021-.007.025-.02.027-.023.012-.018-.007.001-.022.012-.033.025z" fill="#EFEFEF"/><path d="M7.124 11.198c-.002-.03-.009-.028-.027.013-.012.025-.01.033.006.023.013-.008.022-.023.021-.036zm.557-.838c.004-.02-.035-.01-.046.012-.007.012 0 .017.016.01.015-.007.029-.017.03-.022zM3.712 22.427c-.018.02-.018.023.012.018.016-.002.031-.01.032-.02.003-.026-.023-.026-.044.002zm2.507 2.256h.004-.004zm-.334-13.247H5.85h.034zm8.421 5.286c.009.007.007-.003 0-.022-.02-.043-.03-.05-.02-.016a.08.08 0 00.02.038zm-12.089.044c-.02-.003-.021 0-.013.044.008.046.034.039.034-.012.001-.016-.01-.03-.021-.032zm.008-2.636c-.001-.007-.007-.004-.015.01a.09.09 0 00-.01.04c.002.006.007.004.015-.011.006-.012.012-.032.01-.039zm.642 2.905c-.02.028-.029.109-.012.111.006.001.02-.014.032-.034.024-.044.006-.115-.02-.077zm.755 5.287c-.001.01.006.023.015.025.01.002.015-.008.01-.02-.004-.013-.01-.023-.014-.024-.005-.001-.01.006-.01.019zm-.538-2.786a.102.102 0 00.046.05c.027.011.027.007.002-.032-.035-.052-.064-.062-.048-.018zm.414 2.508c-.007-.002-.008.006 0 .019.009.012.02.024.025.025.003 0 .002-.01-.001-.02-.004-.013-.014-.022-.024-.024zm2.039-11.317c-.002.005.002.016.009.025.007.007.02 0 .028-.015.008-.017.003-.027-.009-.026-.012.002-.025.01-.028.016zm2.858 6.058c-.073-.034-.079-.028-.04.05.023.05.106.052.106.002 0-.009-.029-.032-.066-.052zm-1.321.559c-.019-.01-.036-.012-.036-.006 0 .005.015.026.033.046.02.02.035.024.036.006.001-.014-.014-.035-.033-.046zm3.377-.381c.013-.009.02-.023.02-.032-.001-.005-.011-.01-.025-.01-.011 0-.021.014-.02.03.002.015.015.02.025.012zm-3.383.504c-.008.015-.005.03.008.03.015 0 .028-.015.03-.03 0-.017-.003-.028-.009-.028-.007 0-.02.011-.029.028zm3.359.253c-.003.041.01.091.033.11.033.032.036.032.012-.003a.36.36 0 01-.03-.111c-.002-.028-.009-.042-.015-.07 0 .029.004.044 0 .073zm3.982-3.723c-.003-.014-.01-.024-.017-.025-.007-.002-.01.007-.004.021.005.013.012.025.016.026.006 0 .007-.01.005-.022zM10.21 19.06c.002-.032-.004-.062-.015-.068-.008-.008-.02.046-.021.118-.001.07-.006.146-.005.168a.17.17 0 00.021.08c.021.032.025.02.032-.085a.463.463 0 00-.005-.14.161.161 0 01-.007-.072zm-1.822-6.775a.139.139 0 00-.031.05c0 .021.068-.01.08-.037.016-.037-.017-.048-.049-.013zm1.672 6.088a.44.44 0 01.09-.017c.02-.003.03-.012.02-.02-.006-.007.011-.056.039-.106.043-.08.047-.094.017-.107-.06-.022-.15-.014-.169.02a.473.473 0 00-.034.137c-.018.098-.014.106.038.093zm1.454-6.989c-.002 0 0 .008.005.023.004.012.014.025.021.026.007.002.005-.01-.004-.023-.008-.015-.018-.026-.022-.026zm-2.152.598c.002.015-.007.023-.02.015-.015-.009-.028.001-.031.022-.003.023-.013.034-.022.023-.01-.008-.02-.004-.025.012-.004.013.004.026.017.027.04.001.102-.054.098-.093-.002-.019-.007-.035-.012-.035s-.007.013-.005.029zm-.177-.574c0 .013.008.026.015.026.01 0 .019-.012.022-.024.003-.016-.004-.026-.016-.026-.013-.001-.023.009-.021.024zm0 .575c0 .013.01.02.017.011a.041.041 0 00.015-.03c0-.004-.008-.01-.018-.01-.008 0-.016.013-.014.029zm-.05.044a.046.046 0 00.01.043c.01.008.017-.002.015-.024-.003-.047-.013-.055-.025-.019zm-3.882-.634c.01-.02-.03-.006-.047.016-.011.012-.005.016.012.008a.119.119 0 00.035-.024zm-.945 1.75c-.012 0-.032.014-.044.03-.035.044-.024.046.022.007.037-.032.04-.038.022-.037zm.802-1.357c.017-.002.019-.007.007-.022-.023-.028-.042-.022-.063.02-.014.026-.011.033.008.022a.243.243 0 01.048-.02zm-.108-.454a.095.095 0 01.035-.028c.014-.009.006-.012-.016-.01-.023.002-.046-.002-.053-.01-.007-.005-.013-.004-.015.007a.11.11 0 01-.028.045c-.017.02-.012.025.022.019.025-.004.05-.014.055-.023zm-.447.156h.025-.025zm-.012 1.642c.018-.039.007-.052-.021-.023-.02.021-.027.063-.01.063.008 0 .021-.019.03-.04zm.332-.194c.009 0 .016-.013.017-.026.003-.015-.003-.025-.01-.025-.009 0-.015.01-.018.026 0 .013.005.025.011.025zm.19-2.276a.14.14 0 00-.018 0h.018zm.159-.087c.021-.025.014-.023-.038.009-.014.01-.022.014-.037.023l.028-.004a.086.086 0 00.047-.028zm-.938 1.415c.008-.031-.021-.049-.037-.02-.007.011-.008.02-.002.02.006-.002.015.004.021.011.007.008.013.005.018-.01zm.635-1.269c-.014-.012-.018-.011-.024.011-.003.01-.023.028-.041.036-.026.011-.023.012.008.009.044-.008.074-.037.057-.056zm-.549 10.387c.011-.018.016-.037.011-.042-.013-.015-.041.029-.035.056.003.011.013.004.024-.014zm.729-8.199c.022-.03.022-.03-.03 0-.03.018-.033.024-.013.024.012.002.033-.011.043-.024zm-1.695.764a1.368 1.368 0 00-.172.342c0 .049.067-.033.117-.144a.414.414 0 01.114-.164c.081-.079.082-.079.09-.017.004.04 0 .056-.024.082a.287.287 0 00-.046.06c-.006.013.004.01.018-.005.025-.026.03-.021.027.025l-.006.06.06-.092a.937.937 0 00.065-.112c.004-.01.012 0 .019.02.017.06.052.004.042-.063-.008-.056-.042-.073-.05-.027-.002.013-.01.026-.017.026-.008 0-.01-.01-.003-.023.027-.057-.177-.027-.234.032zm.321.245c.048 0 .087-.013.107-.037.03-.035.038-.084.007-.053a.198.198 0 01-.078.027c-.098.022-.124.064-.036.063zm-.597-1.808l-.061.06-.063.06.023-.003a.11.11 0 00.045-.03.086.086 0 01.033-.026c.01-.002.004.008-.01.024-.016.019-.006.012.022-.012a.442.442 0 01.078-.056c.057-.025.075-.065.02-.045-.036.015-.042.015-.018-.004.048-.037-.014-.018-.117.039l-.08.045.064-.026.065-.026zm.568.12c.015-.025-.015-.019-.038.008-.01.012-.015.026-.01.031.007.011.028-.006.048-.039zm-.114 1.061c.016-.033.009-.055-.011-.034-.028.029-.037.058-.019.057.01 0 .023-.01.03-.023zm-.272-.552c-.021.023-.03.037-.023.036a.616.616 0 00.116-.13c.018-.03-.006-.019-.042.021-.018.02-.03.037-.026.037.005 0-.007.016-.025.036zm.115.813c.031-.019.048-.025.038-.012-.023.031.009.057.076.057l.057.001.023-.071c.012-.039.015-.067.003-.061-.01.008-.02-.002-.022-.02-.007-.064-.049-.057-.175.034a2.455 2.455 0 00-.137.1c-.027.029.083.007.137-.028zm.631-1.752c-.005.001-.012.01-.018.024-.004.01-.005.021-.002.02a.1.1 0 00.018-.023c.009-.014.009-.022.002-.02zm-.87 1.505a.183.183 0 00.022-.07c.007-.032.005-.046-.002-.033-.018.032-.035.118-.02.103zm.024-.726a.167.167 0 00-.075.041c-.048.046-.048.046.042-.006.066-.038.069-.041.033-.035zm.028.451c-.032.042-.04.055-.031.065.004.007 0 .024-.01.036-.01.013-.018.03-.017.039.003.007.017-.011.033-.043.017-.032.039-.078.05-.104.016-.045.016-.045-.024.007z" fill="#EFEFEF"/><path d="M3.498 13.985c-.054.022-.077.064-.035.063a.572.572 0 00.212-.109c.026-.034.004-.028-.177.046zm-.127-.997l-.029.017a.09.09 0 00-.036.03.204.204 0 00-.017.128c.006.016 0 .054-.014.088-.02.05-.02.054.003.022a.585.585 0 00.063-.166c.018-.067.03-.12.03-.12zm-.101.439c.01-.001.028-.02.038-.04.01-.02.015-.037.015-.037a.32.32 0 00-.038.04c-.027.03-.031.038-.015.037zm-.098-1.051c-.007-.01-.01-.007-.016.016-.005.022-.019.037-.07.076l-.06.046.05-.008a.244.244 0 00.08-.031c.015-.014.053-.043.084-.066a.4.4 0 01.07-.048.089.089 0 00.034-.026c.03-.036-.01-.02-.067.024-.05.042-.086.046-.105.017zm9.178 1.596c-.02-.002-.035.008-.035.024 0 .015.015.027.034.028.02.001.035-.01.036-.024-.001-.015-.015-.027-.035-.028zm-.065-.363a.71.71 0 00-.012 0h.012zm.113-2.277c-.005 0-.006.007 0 .02.005.012.016.024.02.025.007.002.005-.008 0-.02-.006-.013-.014-.023-.02-.025zm-.288 2.294c-.05.023-.061.045-.047.093.015.054.031.047.034-.013.001-.028.017-.05.036-.05.02.002.03-.01.026-.023-.005-.016-.009-.027-.01-.024-.002.002-.02.008-.04.017zm-.39-2.16c0 .027.002.034.014.036.008.002.018.02.021.035.005.024.011.031.018.026.006-.006 0-.036-.015-.07-.027-.067-.037-.073-.038-.027zm.6-.076c-.022-.035-.066-.076-.054-.049.004.01.023.032.04.048.029.03.03.028.014.002zm.127 2.116c-.006 0 0 .012.015.027a.122.122 0 00.04.029c.009 0 0-.013-.014-.027a.143.143 0 00-.04-.03zm.84-.57c-.002 0 0 .037 0 .08.007.091-.021.213-.052.237-.02.016-.02.016.004.022.014.004.035-.014.046-.038.012-.024.025-.043.032-.042.022.004.02-.11-.003-.183a.46.46 0 00-.027-.076zm.224 1.604c-.006 0-.007.01-.002.025.004.013.017.026.027.027.01 0 .01-.012.002-.025-.008-.016-.02-.027-.027-.027z" fill="#EFEFEF"/><path d="M15.87 18.445c-.002.002 0-.008.003-.018a.066.066 0 01.011-.024c.003-.002.001.006-.003.018a.071.071 0 01-.01.024zm-.04.078c.004-.017.008-.026.014-.025.005-.001.007.008.003.02-.009.03-.021.033-.016.005zm-.043-.503c-.001.014-.003.022-.005.018a.069.069 0 010-.029c.006-.027.008-.023.005.01zm-.026.054c-.005.003-.009-.003-.007-.013.002-.01.008-.015.012-.012a.014.014 0 01.007.012c-.001.004-.006.01-.012.013zm-.041-.164c-.008.017-.011-.04-.006-.072.002-.012.006-.004.008.017a.17.17 0 01-.002.055zm-.03-.136a.07.07 0 010-.03c.002-.01.005-.014.007-.009a.066.066 0 010 .029c-.002.011-.004.015-.007.01zm-.066.134c-.007.008-.017.007-.024-.004l-.013-.017.028-.018a.108.108 0 00.043-.057c.016-.043.025-.056.02-.024a.488.488 0 01-.054.12zm-.063 1.037c-.004.002-.007-.024-.01-.056-.002-.077.006-.08.013-.006.004.03.001.06-.003.062zm-.055-.805c-.005-.079-.02-.101-.048-.062a.207.207 0 00-.027.059c-.011.052-.06.068-.068.024-.004-.03-.012-.034-.034-.017-.025.02-.027.019-.018-.011.007-.02.016-.036.022-.038.006-.002.012-.014.015-.028.008-.035-.001-.148-.011-.145-.005.001-.023-.014-.04-.035-.018-.02-.035-.028-.037-.018-.002.01-.007.02-.011.02-.004.002-.005-.012-.002-.028a.09.09 0 00-.002-.046c-.008-.016-.005-.02.017-.028.02-.008.024-.013.01-.015-.01-.001-.019-.014-.02-.028-.002-.013-.009-.03-.017-.036l-.017-.012.028-.033c.024-.03.064-.037.068-.015a.344.344 0 01-.005.062.364.364 0 00-.003.086c.005.036.008.033.05-.047.04-.07.046-.078.057-.064.006.01.035.036.062.06.051.044.07.081.062.12-.002.011.005.035.016.05.013.018.014.03.006.04-.018.017-.024.056-.016.1a.192.192 0 01.001.06c-.002.01-.001.015.002.01.004-.007.01.013.012.04.004.043.003.053-.005.049-.005-.004-.017-.008-.026-.012-.01-.003-.019-.03-.02-.062zm-.27-.078a.906.906 0 00.018-.06c.002-.01.007-.019.011-.02.01-.003.003.024-.02.076-.018.038-.02.038-.008.004zm-.056.504c.002 0 0 .007-.003.02-.002.01-.009.022-.013.024-.004.001-.003-.009.002-.02a.073.073 0 01.014-.024zm.181-.016c.01.01.01.027 0 .067a.826.826 0 00-.018.088.935.935 0 01-.015.09.174.174 0 00.003.092c.007.02.01.065.004.103-.006.039-.007.073-.002.076.005.005.005.019.001.034a.435.435 0 00-.007.093.4.4 0 01-.017.125c-.01.031-.024.08-.03.105a.923.923 0 01-.04.122l-.051.129a1.03 1.03 0 01-.05.102 5.05 5.05 0 00-.178.363c-.013.033-.02.045-.034.052a.416.416 0 00-.066.069c-.048.057-.05.059-.05.03 0-.028-.003-.027-.032.012-.023.031-.035.04-.038.03-.004-.007-.016-.014-.027-.016-.026-.003-.028-.028-.006-.085.022-.058.023-.09 0-.067-.012.013-.01.007.003-.022.029-.058.03-.083.002-.034-.038.063-.03.031.01-.044.052-.1.048-.107-.013-.014-.057.09-.074.109-.06.069.019-.049.017-.16-.001-.156-.012.002-.024-.002-.027-.01-.005-.007-.03.002-.062.023-.147.099-.202.143-.23.2-.015.026-.031.038-.077.053a.266.266 0 00-.116.077c-.07.069-.081.075-.11.042-.023-.026-.02-.046.01-.073a.453.453 0 00.07-.174.197.197 0 01.01-.066 3.18 3.18 0 00.032-.166c.015-.088.022-.114.037-.13.016-.018.02-.031.021-.07.002-.062.073-.258.09-.245.005.004.013-.004.017-.017.004-.014.013-.026.02-.028a.775.775 0 01.153-.143.867.867 0 00.102-.082.619.619 0 00.084-.157c.018-.055.052-.108.047-.073-.001.014 0 .025.006.024.005-.002.012-.018.013-.034.002-.02.01-.033.023-.037.01-.003.02-.015.022-.03.003-.026.052-.11.066-.114.005-.002.01-.012.014-.022.007-.028.041-.052.051-.034.005.009.005.028.001.043-.004.017.002.02.02.009a.059.059 0 00.03-.043.214.214 0 01.025-.062.299.299 0 00.027-.057.095.095 0 01.053-.06c.02-.006.039-.051.032-.07-.01-.024.001-.022.024.004a.065.065 0 00.05.02c.022-.004.028.003.021.025a1.433 1.433 0 00-.052.118c-.03.074-.028.082.011.15.014.02.023.05.022.059 0 .03.02.011.046-.046.013-.029.04-.104.057-.165.04-.145.069-.245.08-.272.018-.044.02-.022.003.09-.013.091-.014.117-.004.13zm-.053 1.515a.095.095 0 00-.019.033.815.815 0 01-.09.164c-.003-.006.001-.018.017-.05.017-.034.02-.044.016-.057-.005-.015.003-.046.013-.052a.53.53 0 00.076-.21c0-.005.003-.028.007-.047.01-.04.015-.049.019-.027a.303.303 0 01-.015.075c-.01.033-.013.054-.008.048.005-.006.008.002.005.02-.002.023.001.027.017.01.011-.014.018-.018.015-.01a.478.478 0 01-.053.103zm-.174.294a1.209 1.209 0 00-.056.102c.003-.018-.037.044-.066.102-.043.087-.073.126-.101.129-.014.002-.02-.007-.014-.021a1.32 1.32 0 01.128-.196c.03-.04.07-.104.1-.16.034-.064.049-.088.047-.075-.001.01.002.015.008.011.014-.008-.004.034-.046.108zm-.374.191c-.014.028-.025.047-.025.042 0-.005-.012.009-.024.027-.03.05-.034.023-.012-.065l.017-.072c.02-.008.028-.013.047-.022.048-.02.048-.015-.003.09zm-.11-.346c-.002-.004.003-.01.014-.014.012-.005.014-.002.007.006-.007.007-.017.01-.02.008zm-.427-6.953c-.004-.001-.013-.013-.018-.025-.006-.014-.006-.022-.002-.021.005.001.012.011.018.025.005.011.007.022.002.021zm.434-.147c.003.01.003.02 0 .018-.003-.001-.01-.012-.012-.022-.004-.013-.003-.02 0-.018.004.001.008.01.012.022zm-5.71-.761c0-.016.017-.027.04-.026.03 0 .032.006.012.027-.03.034-.05.033-.052-.001zm-.237.074c.006-.016.018-.026.029-.026.008 0 .016.01.016.027 0 .013-.012.026-.028.026-.015 0-.022-.014-.017-.027zm-.41.151c.051-.022.058-.018.057.003 0 .04-.042.08-.067.067-.033-.019-.028-.056.01-.07zm-.07.076c-.009.008-.021.002-.027-.014-.005-.013.003-.027.017-.027.032 0 .037.016.01.04zm1.588 1.975c.004-.017.032-.028.06-.027.03.001.046.013.042.03-.004.013-.031.027-.06.026-.028 0-.046-.012-.042-.03zm-.517-.035c.041 0 .059.007.04.015a.171.171 0 01-.076-.002c-.022-.009-.005-.014.036-.013zm-.998-.275c0-.01.048-.023.107-.023.1 0 .106.002.094.07-.005.04-.017.07-.025.065-.007-.006-.051-.028-.094-.05-.046-.022-.082-.05-.082-.062zm-.26-.452c.027-.034.048-.015.045.038-.001.031-.01.056-.021.056-.023 0-.041-.072-.023-.094zm0 .143c.048-.015.061.004.057.091-.004.07-.037.113-.088.114-.008 0-.012-.045-.009-.098.004-.065.017-.102.04-.107zm-.45.154a.021.021 0 01.02-.029c.037 0 .042.017.011.042-.01.009-.024.003-.03-.013zm6.328 2.195l-.016.064c-.017.064-.03.072-.071.048-.016-.01-.023-.027-.024-.07-.002-.062-.055-.193-.076-.193-.008 0-.015-.018-.017-.038 0-.023-.016-.049-.041-.067a.407.407 0 01-.087-.125c-.05-.108-.094-.15-.084-.08.004.026 0 .047-.01.049a.285.285 0 00-.06.016c-.024.005-.052.013-.06.013-.009.002-.011.023-.004.05.014.054.003.11-.023.11-.01 0-.029.039-.042.083-.039.145-.075.233-.091.233-.009 0-.014.011-.01.024.003.013-.007.03-.022.038-.022.013-.02.035.006.142.04.144.075.31.028.457-.04.126-.068.123-.125-.017a2.492 2.492 0 00-.102-.206.955.955 0 01-.07-.144 1.13 1.13 0 00-.072-.152 1.932 1.932 0 01-.182-.502.338.338 0 00-.033-.104c-.035-.073-.035-.073-.034-.016 0 .1-.05.105-.13.01-.066-.078-.068-.084-.033-.084.02 0 .032-.013.028-.03-.003-.013-.012-.019-.019-.01-.017.021-.1-.052-.196-.173-.04-.05-.078-.086-.085-.077-.143.048-.368.02-.51-.037a.324.324 0 01-.046-.08c-.031-.07-.071-.094-.06-.035.004.017 0 .022-.007.014-.01-.009-.028-.006-.045.01-.128.027-.267-.136-.33-.237-.062-.112-.107-.133-.167-.081-.03.03-.03.03.026.137.03.06.07.116.086.125.015.008.05.065.07.12.042.102.046.105.049.046.006-.078.052-.05.052.032.002.156.165.157.245.005l.046-.093.021.078c.029.097.058.136.123.159a.27.27 0 01.105.078l.05.063-.023.089c-.012.047-.03.088-.041.088-.024 0-.034.077-.013.108.006.014-.006.036-.026.052-.022.02-.038.045-.035.062.003.013-.011.027-.031.027s-.035.017-.03.04c.003.021-.022.044-.068.056a.166.166 0 00-.104.084.257.257 0 01-.104.101.488.488 0 00-.117.083.147.147 0 01-.054.042c-.007-.002-.03.006-.055.02a.193.193 0 01-.073.027.179.179 0 00-.078.04c-.029.023-.065.035-.079.03-.03-.014-.108-.223-.122-.33a.558.558 0 00-.088-.173.58.58 0 01-.083-.148.339.339 0 00-.09-.108c-.055-.051-.087-.1-.092-.145a.418.418 0 00-.132-.257c-.03-.026-.056-.06-.059-.078a.955.955 0 00-.101-.177 2.373 2.373 0 01-.117-.19c-.01-.028-.014-.02-.01.023.008.088-.037.068-.102-.047a.339.339 0 00-.07-.092c-.01 0 .007.042.035.091.03.052.072.135.097.184.022.051.066.14.1.2a.8.8 0 01.068.152c.005.025.037.08.072.12.04.046.072.118.091.21.023.096.05.153.094.193a.479.479 0 01.097.168.34.34 0 00.127.18c.119.09.275.271.245.289-.015.006 0 .04.04.084l.06.073.209-.06c.114-.034.219-.072.237-.083.033-.023.037-.015.045.11a.656.656 0 01-.007.165c-.007.017-.03.106-.05.202a.801.801 0 01-.278.475 1.13 1.13 0 00-.185.186c-.07.08-.155.18-.192.221a1.22 1.22 0 00-.14.214c-.06.11-.07.146-.055.19a.65.65 0 01.015.177c-.001.07.01.132.027.148.023.021.027.081.01.243-.02.195-.025.218-.078.277a.43.43 0 01-.125.092.4.4 0 00-.131.101.932.932 0 01-.115.111c-.048.039-.051.048-.037.13.01.05.011.13.005.181-.01.085-.014.092-.11.142-.097.047-.099.052-.115.156a.275.275 0 01-.08.177 2.572 2.572 0 00-.131.153c-.126.18-.323.25-.528.268a.508.508 0 00-.171.037c-.034.019-.059.02-.097.004-.057-.023-.111-.112-.09-.147.017-.029-.118-.286-.172-.325-.055-.045-.098-.146-.125-.31a.581.581 0 00-.066-.206c-.084-.116-.194-.26-.214-.394a.658.658 0 01.104-.368c.04-.045.047-.075.03-.154a2.644 2.644 0 01-.037-.187 1.107 1.107 0 00-.265-.513c-.146-.15-.194-.235-.163-.28a.475.475 0 00.028-.164.866.866 0 01.02-.176c.007-.026-.017-.073-.063-.115-.066-.062-.084-.07-.186-.053-.12.02-.17-.006-.167-.078.001-.02-.025-.059-.06-.085-.13-.08-.32 0-.441.059-.12.054-.168.062-.242.04a.442.442 0 00-.202 0c-.218.056-.233.055-.287.002-.1-.098-.286-.237-.293-.36a.492.492 0 00-.064-.171.51.51 0 01-.066-.139c.002-.014-.018-.034-.044-.043-.038-.014-.045-.034-.03-.094a.33.33 0 00-.003-.14c-.012-.043-.01-.065.005-.074.027-.011.098-.202.115-.302.025-.168.026-.223.004-.271-.02-.046-.016-.06.046-.171.035-.066.086-.146.112-.18a.255.255 0 00.052-.09c.01-.06.168-.252.246-.304.121-.076.194-.168.193-.24-.003-.085.1-.242.194-.303a.327.327 0 00.117-.136c.039-.094.054-.105.078-.063.022.036.235.052.26.024.111-.115.327-.146.49-.16.126-.01.266-.025.311-.034.05-.012.08-.006.079.013 0 .018.016.02.038.012.034-.018.033-.015.006.028-.026.04-.027.057-.004.093.023.04.02.054-.024.097a.245.245 0 00-.051.069c-.001.023.2.13.218.115.032-.023.187.052.21.103a.088.088 0 00.074.05c.029 0 .097.026.152.054.09.05.103.053.13.013a.236.236 0 00.028-.102c-.002-.077.098-.14.178-.113.032.01.058.027.058.038 0 .014.06.038.133.06a6 6 0 01.207.067c.108.041.156.04.231-.001.055-.03.074-.03.124.005.095.067.16.015.201-.165a1.23 1.23 0 00.03-.266c0-.046 0-.069-.002-.115l-.066.01c-.037.004-.07.02-.075.034-.012.039-.094.028-.164-.021-.054-.038-.064-.038-.093.003-.025.036-.044.038-.083.015-.027-.018-.074-.044-.107-.065-.035-.018-.063-.05-.064-.075-.002-.022-.012-.042-.022-.042-.008 0-.015-.032-.011-.07.003-.045-.005-.071-.022-.071-.014 0-.022-.018-.017-.04.02-.092-.128-.146-.175-.063-.014.025-.042.035-.064.027-.042-.022-.055.023-.016.055.011.008.016.034.01.059-.006.022-.003.04.007.037.095-.02.128.048.043.088-.036.019-.05.04-.04.07.008.025.002.042-.017.041-.037 0-.135-.124-.108-.138.011-.002-.019-.056-.066-.116-.058-.072-.087-.134-.088-.182-.001-.055-.023-.093-.086-.143a.664.664 0 00-.14-.09c-.032-.01-.073-.055-.091-.096-.02-.053-.044-.075-.065-.067-.019.009-.038-.002-.044-.024-.017-.067-.094-.022-.097.056-.001.036.006.067.018.066.01 0 .054.05.098.111.045.061.098.111.115.111.019 0 .034.011.033.028a.03.03 0 00.028.028c.035 0 .177.111.162.128-.006.009-.031 0-.057-.022-.038-.028-.05-.028-.072 0-.022.028-.022.042.004.062.029.022.022.04-.03.104-.058.074-.062.077-.047.015.027-.113-.01-.172-.15-.258a.945.945 0 01-.222-.21c-.048-.068-.097-.123-.11-.12a.52.52 0 00-.125.068c-.081.051-.114.06-.145.038-.068-.046-.141-.004-.158.086-.01.056-.029.081-.079.104-.082.038-.182.155-.183.214 0 .056-.065.17-.099.17-.014 0-.032.02-.04.043-.012.029-.046.043-.094.044a.403.403 0 00-.134.03c-.047.027-.064.022-.092-.026-.025-.042-.049-.053-.097-.038-.058.018-.063.013-.053-.05a.205.205 0 00-.005-.097c-.013-.025-.008-.057.022-.122a.865.865 0 00.049-.207c.009-.11.015-.126.058-.155.027-.017.057-.026.068-.018.012.005.098.015.193.018.168.008.176.005.2-.06a.704.704 0 00.035-.136c.012-.102-.072-.23-.15-.229-.022 0-.035-.018-.032-.04.006-.042.04-.054.136-.044.038.001.05-.01.056-.056.007-.05.012-.053.041-.029.026.025.048.021.1-.013a.24.24 0 00.077-.083c.008-.022.04-.047.071-.058.032-.009.081-.056.113-.103.038-.063.057-.077.064-.052.009.024.016.018.027-.022.014-.057.028-.063.162-.07.049-.003.051-.02.04-.216-.005-.078-.001-.1.014-.086.01.01.031 0 .048-.022.033-.048.089-.059.07-.016-.009.016-.007.046.005.067.014.027.01.04-.02.054a.09.09 0 00-.045.054c-.021.062.035.107.143.107.057 0 .111.011.122.02.011.01.078-.004.149-.033.084-.035.134-.042.145-.026.025.035.105.037.104.003 0-.017.016-.027.036-.027.03.001.036-.018.033-.088-.005-.144.047-.204.117-.133.044.047.065.037.075-.037.003-.035-.006-.056-.029-.065-.019-.009-.034-.028-.035-.043-.002-.038.05-.055.197-.06.067-.001.124-.012.129-.022.017-.031-.04-.07-.091-.062l-.152.024c-.126.02-.21-.022-.21-.108a.438.438 0 00-.013-.098c-.013-.042.008-.06.186-.21.051-.043.029-.08-.055-.09-.076-.01-.162.044-.14.091.012.032-.017.065-.108.115a.238.238 0 00-.128.202c0 .027.01.048.023.048.012 0 .038.016.056.037.028.033.03.04.008.072a.311.311 0 01-.076.071c-.04.026-.047.045-.042.109.009.085-.03.136-.104.136-.025 0-.045.01-.046.023 0 .049-.073.052-.09.003a.125.125 0 01-.007-.059c.006-.008-.006-.035-.024-.062a.169.169 0 01-.032-.085c0-.019-.006-.035-.016-.035-.009 0-.016-.016-.015-.037a.14.14 0 00-.023-.07c-.016-.02-.024-.023-.025-.002-.001.016-.036.054-.075.085-.056.041-.091.052-.136.039-.081-.024-.09-.04-.05-.082.031-.038.03-.04-.01-.024-.038.014-.04.01-.014-.019.027-.029.027-.04.012-.069-.04-.068-.014-.147.064-.198a.316.316 0 01.1-.045c.015 0 .03-.019.03-.04.002-.023.012-.031.026-.023.013.008.043-.008.068-.04.025-.028.051-.047.059-.039.007.008.014 0 .015-.013 0-.015.01-.028.023-.028s.039-.034.054-.075a.416.416 0 01.122-.15c.087-.065.127-.128.066-.098-.015.007-.038.002-.05-.014-.018-.02-.014-.023.013-.01s.033.01.025-.012c-.009-.023-.004-.023.023 0 .04.036.098.014.061-.024-.018-.021-.015-.026.016-.028a.57.57 0 01.056-.004c.01.003.015-.007.01-.02-.01-.028.006-.028.047 0 .019.014.046.01.07-.01.02-.018.053-.027.073-.021.018.008.04.003.048-.009a.213.213 0 01.072-.048c.049-.021.053-.019.035.008a.105.105 0 00-.023.053c0 .01.01.005.021-.012a.101.101 0 01.052-.036.134.134 0 00.057-.023c.013-.01.024-.007.025.011.002.015.01.02.02.016.009-.005.041.002.07.014.052.024.053.024.02.046-.03.016-.02.021.055.04.21.05.245.063.382.135.08.043.151.094.16.115.007.02-.005.047-.035.07-.041.031-.068.032-.198 0-.148-.04-.206-.037-.121 0 .027.012.042.033.04.054a.161.161 0 00.02.075.3.3 0 00.156.104c.032.002.017-.043-.019-.06-.018-.009-.035-.03-.037-.046-.003-.02.006-.026.033-.011a.42.42 0 00.105.037c.062.016.066.014.042-.026-.035-.053-.033-.056.032-.095.031-.018.07-.023.094-.011.047.024.078-.027.042-.063a.092.092 0 01-.02-.06c0-.02-.01-.048-.021-.061-.027-.025.066-.023.105.003.036.025.041.063.009.06-.037-.002-.041.038-.008.06.043.029.107.027.11-.008.005-.03.09-.078.167-.088a.203.203 0 00.059-.024c.01-.008.027-.002.036.014.013.023.047.026.128.015.085-.01.114-.007.128.017.014.023.024.024.04.006.023-.03.006-.065-.063-.118-.041-.034-.044-.04-.015-.024.02.01.082.032.14.05.056.02.151.063.213.1.13.074.157.053.047-.04-.039-.03-.063-.058-.054-.057.007.001.01-.015.003-.034-.007-.02-.02-.039-.028-.042-.009-.002-.003-.017.011-.034a.12.12 0 00.028-.075c0-.025.01-.045.02-.043.013.002.018-.009.014-.02-.005-.015.004-.023.02-.02.021.003.024.008.016.025-.007.015 0 .023.03.027.044.008.072.046.069.094-.002.027.002.04.018.056a.317.317 0 01.045.102.293.293 0 00.056.118c.027.032.029.041.013.103-.016.06-.027.068-.072.05-.034-.014-.047-.011-.036.007.029.047.131.043.17-.003.029-.034.03-.057.014-.1-.016-.04-.016-.053.005-.055.04-.008.092.03.109.077.013.037.016.037.014.007-.002-.054-.056-.102-.128-.113-.07-.01-.1-.043-.096-.1.002-.03-.003-.04-.032-.072-.033-.035-.036-.043-.027-.06.005-.01.019-.02.03-.018.011.002.015-.013.006-.037-.008-.022-.008-.03.002-.02.008.01.024.044.034.071.015.043.027.055.063.065.037.01.039.009.009-.014-.054-.041-.053-.061.004-.036.046.022.047.022.011-.018-.036-.043-.035-.042.015-.02.029.011.08.038.11.055.032.02.066.032.075.027.013-.004.006-.012-.028-.031-.04-.024-.113-.117-.094-.12.003-.001.065.001.132.006.084.008.112.003.09-.014a1.14 1.14 0 01-.034-.025l.016-.022c.026-.04.234-.051.364-.019.04.011.069.012.06 0-.006-.01 0-.013.015-.01.014.004.024-.001.021-.014-.002-.01.006-.025.02-.031.037-.02.123.016.132.054.004.02.079.059.14.072.028.006.07.024.09.04a.808.808 0 00.056.037c.009.005.02.016.027.025.027.045.027.058.001.07l-.065.026c-.018.01-.044.02-.056.025-.037.01 0 .036.05.034.03 0 .041-.009.03-.025-.014-.02 0-.018.043.006.033.018.104.047.154.064s.11.046.13.066c.022.018.066.04.098.051.047.015.055.012.04-.016-.013-.028-.004-.027.056.002a.96.96 0 01.098.055c.026.018.028.02.019.03-.008.011-.007.013.011.02.024.01.06.057.037.05-.013-.005-.01-.001.02.033.07.077.098.096.1.064-.001-.025.016-.024.064-.005a.351.351 0 01.088.046c.014.012.021.012.018 0-.003-.01.007-.01.021.001.024.02.024.016-.002-.026-.024-.039-.024-.044-.008-.041l.036.013.068.034c.039.018.053.03.067.057.012.02.015.025.008.008-.015-.037.07.005.105.052.04.051-.011.034.088.082.041.02.07.035.092.052l.05.06.002.003c.007.017.016.03.025.033a.036.036 0 01.008.007l.02.023a.076.076 0 01.005.008c.013.021.017.027.018.021.184.231.356.473.515.726-.005.005-.01.002-.02-.01-.027-.035-.045-.04-.048-.014-.002.014-.006.016-.013 0-.006-.012-.011-.015-.014-.01-.002.007-.01.008-.018.003-.009-.004-.011.016-.004.056.014.072.02.089.037.095.009.004.016.016.028.048.01.023.02.043.024.044a.096.096 0 01.017.027c.006.013.005.018-.001.01-.022-.022-.018.017.004.06.016.032.018.044.008.05-.01.002-.01.02 0 .047.009.024.011.045.006.049-.005.006-.004.024.004.042.019.044.018.123-.002.083a8.754 8.754 0 00-.072-.143 3.998 3.998 0 01-.088-.182c-.038-.087-.054-.17-.038-.191a.094.094 0 00.009-.052.355.355 0 01.004-.083c.007-.055-.02-.15-.043-.16-.007-.003-.005.015.004.04.01.025.015.04.01.029-.005-.009-.01-.001-.013.017-.006.034-.023.024-.042-.028-.009-.022-.018-.031-.045-.042-.028-.01-.035-.003-.034.053-.001.055.002.07.02.088.02.02.02.021.007.016a.162.162 0 00-.04.001c-.02.001-.03-.004-.034-.019-.008-.029-.08-.077-.078-.052 0 .01-.022.006-.052-.007-.103-.048-.028-.013-.046.176a.56.56 0 01-.018.089l-.014.036.03.014c.02.009.034.025.046.053.014.034.016.035.01.006-.006-.028.004-.013.02.03.01.028.019.024.021-.007.007-.072.137.11.152.213.002.017.021.076.04.13.033.087.04.119.05.295.011.23 0 .28-.045.237-.025-.024-.031-.02-.04.028a.228.228 0 00.002.09.208.208 0 01-.015.13.542.542 0 00.063.114c.058.088.074.12.096.192.025.082.025.089-.004.111-.017.015-.035.018-.037.01a1.185 1.185 0 01-.064-.198c.003-.025-.027-.07-.049-.073-.028-.004-.039-.024-.054-.09-.011-.051-.015-.059-.049-.077-.023-.012-.041-.007-.05.015-.019.04-.043.007-.044-.06 0-.042-.002-.046-.022-.063-.014-.011-.027.008-.037.056-.01.042-.025.076-.035.077-.025 0 .002.072.032.085a.081.081 0 01.036.044c.016.047.043.064.046.026.002-.021.018-.024.044-.012.047.022.06.052.032.07-.026.016-.042.15-.02.17.02.016.039.044.104.159s.088.186.073.216l-.012.025.02.001c.04.008.06.085.056.231a.477.477 0 000 .091l.01.039a.546.546 0 01-.021.182c-.02.08-.079.124-.102.08-.011-.02-.013-.015-.005.012s-.002.051-.033.08c-.045.04-.047.09-.002.153.014.02.019.041.02.078 0 .059-.013.081-.04.062-.04-.028-.045-.132-.006-.133.017 0 .016-.007 0-.03a.269.269 0 01-.033-.073c-.022-.078-.079-.056-.099.039-.023.106-.005.165.093.304.115.164.133.2.168.332.024.098.027.121.013.17-.01.033-.026.058-.036.059-.01 0-.016.013-.012.027.006.026-.016.118-.029.122-.005 0-.014-.026-.022-.059-.01-.035-.024-.066-.037-.075a.652.652 0 01-.09-.103c-.035-.05-.073-.09-.082-.089-.01.001-.02-.016-.027-.038-.02-.079-.029-.015-.019.116.013.167.017.187.061.247.02.028.042.075.048.104.009.036.023.059.043.067.055.025.165.146.151.227a.74.74 0 00-.01.141c.004.059.003.065-.013.068-.051.008-.097-.183-.127-.313-.012-.052-.108-.224-.124-.222a1.06 1.06 0 01-.05-.196 1.293 1.293 0 00-.082-.287 5.932 5.932 0 01-.123-.3zm-.516 1.028c-.025.027-.035.026-.053-.004a.89.89 0 01-.063-.263c0-.063.016-.05.075.055.071.125.08.173.04.212zm-1.049 5.65c-.005-.004 0-.011.013-.015.012-.006.016-.002.009.006-.006.007-.017.012-.022.008zm-.708-6.199c.035 0 .044.016.021.042-.008.008-.023.003-.034-.014-.008-.013-.002-.027.013-.028zm-.117 3.025c.003-.014.008-.024.012-.024.005 0 .012.007.014.02.003.012-.003.024-.011.025-.011 0-.018-.01-.015-.021zm.006 2.473c.028.001.032.009.015.024-.038.033-.075.035-.064.003.006-.02.023-.029.049-.027zm-.703-2.597c-.01-.126.037-.209.152-.256a.306.306 0 00.116-.088.785.785 0 01.08-.098.185.185 0 00.045-.08c.003-.02.013-.047.022-.055a.058.058 0 01.02-.018c.016-.002.04.138.037.22-.002.079-.006.09-.03.079-.024-.007-.029-.002-.025.035a.136.136 0 01-.017.076.448.448 0 00-.03.066c-.074.204-.154.45-.26.6a.282.282 0 01-.085.038c-.092.029-.132-.02-.126-.166.002-.086.01-.117.057-.18.047-.066.052-.083.044-.173zm-2.98 4.688l.01-.026c.003 0 .007.013.011.028.003.016 0 .027-.01.026-.011-.001-.015-.012-.011-.028zm-.704.167c-.002-.011 0-.018.002-.017.003 0 .01.008.016.02.004.01.003.018-.002.017-.007 0-.015-.01-.016-.02zm1.112.451c-.468 0-.926-.043-1.372-.123.016-.003.027-.007.031-.014a.081.081 0 00-.039-.022l-.037-.009.028-.019c.026-.018.024-.018-.043-.022a.424.424 0 00-.084-.003.559.559 0 01-.163-.078c.02-.079.469-.085.609-.066.043.006.074.002.075-.009 0-.01.034-.034.075-.053.065-.03.07-.034.027-.028-.039.004-.048-.001-.047-.019.002-.014.02-.024.042-.025.022-.001.043-.01.05-.018.004-.008.017-.014.028-.012a.13.13 0 00.051-.013c.03-.015.03-.017.006-.046-.024-.029-.024-.029-.002-.018.013.008.041.006.062-.005.033-.014.042-.011.063.018.024.034.026.033.055 0 .03-.036.082-.048.07-.016-.004.008.047.023.113.031a.417.417 0 00.232-.021c.044-.018.29-.013.336.006.02.008.042.007.052-.005a.962.962 0 01.348-.003.92.92 0 00.263-.016c.15-.03.194-.046.25-.092.022-.019.032-.016.057.016.017.02.04.031.054.024.014-.006.025-.005.024.005.001.024.056.007.083-.025a.466.466 0 01.18-.083.508.508 0 00.077-.03.2.2 0 01.085-.014c.032.005.04.001.042-.015 0-.015.01-.019.037-.017.027.003.037-.002.041-.018.011-.048.192-.093.23-.06.01.01.019.024.018.03 0 .013.148.02.31.011.06-.003.1.001.097.01a.3.3 0 01-.098.098.058.058 0 00-.029.019c-.019.02 0 .032.028.015.02-.012.02-.01-.006.016a.135.135 0 01-.04.033c-.025.004-.052.053-.033.059.026.008.1-.038.145-.09.022-.024.04-.04.04-.036 0 .004.012-.002.028-.017a.515.515 0 01.104-.057.881.881 0 00.142-.08.4.4 0 01.09-.055.18.18 0 00.055-.028.65.65 0 01.182-.065.166.166 0 00.057-.038l.004-.004a.1.1 0 01.03-.022c.044-.027.066-.03.153-.032.09-.001.103-.006.13-.03.038-.037.108-.068.115-.052.007.019.055.02.103.006.079-.023.207-.076.224-.092.01-.008.018-.006.019.004 0 .023.036.01.07-.024a.206.206 0 01.082-.047c.05-.017.056-.023.074-.05a.112.112 0 01.032-.035c.008-.003.004.005-.012.028-.019.023-.02.03-.01.027.027-.007.046-.01.083-.018a.653.653 0 00.116-.03c.01-.005.01-.002.004.006-.013.015.018.02.059.012.011-.003.018-.001.014.005-.003.004.006.002.022-.005a.12.12 0 00.034-.023c.012-.017.026-.021.016-.005-.005.007.008.006.026 0 .02-.008.04-.012.045-.008.01.008.026.005.075-.017a7.735 7.735 0 01-4.587 1.498zm-1.934-2.284c-.039-.029-.04-.03.002-.016a.147.147 0 01.057.032c.022.03-.01.022-.059-.016zm-.033 2.013h-.07a7.431 7.431 0 01-.318-.093.392.392 0 01.033-.001c.043 0 .063-.012.068-.038.005-.02.027-.039.05-.042.07-.008.196.037.203.074.002.01.016.034.031.053.026.032.025.036.003.047zm-.532-12.792c-.026-.111-.026-.114.02-.168.045-.053.045-.053-.003-.026-.062.038-.064.039-.047-.005a.186.186 0 000-.092c-.013-.034-.01-.057.005-.065.017-.011.02-.021.011-.043-.009-.026-.003-.037.049-.086.032-.032.07-.059.087-.06.017 0 .044-.027.07-.068.032-.053.035-.06.01-.034-.015.015-.027.018-.025.006.004-.013-.012-.03-.034-.037-.039-.011-.039-.011-.022.019l.018.032-.037.018c-.052.022-.089.001-.072-.041.009-.02.021-.035.029-.036.006 0 .014-.01.015-.023.001-.012.014-.03.028-.038s.018-.006.008.01c-.011.014 0 .023.028.021a.111.111 0 01.06.01c.031.03.03-.033 0-.07-.023-.024-.054-.029-.093-.016-.064.02-.067-.005-.009-.063.025-.026.03-.046.019-.121-.006-.049-.019-.089-.027-.088-.01.001-.019-.011-.02-.027-.004-.056-.108-.074-.258-.042-.097.022-.149.025-.157.01a.082.082 0 00-.038-.035c-.022-.01-.016-.013.036-.023.035-.007.068-.023.074-.037.006-.011.005-.017-.007-.007-.023.02-.143-.008-.132-.03.008-.016.052-.035.225-.092.096-.03.13-.048.142-.073.007-.013-.011-.02-.037-.015-.027.005-.04-.002-.03-.012a.602.602 0 01.226-.102c.04-.006.06-.018.067-.038.016-.04.3-.116.316-.081.008.018.017.019.029 0 .013-.017.029-.02.05-.008.046.027.063.021.063-.018 0-.044.016-.047.13-.014.103.03.107.03.109 0 .002-.013.007-.022.016-.023.027-.003.01-.03-.027-.045-.024-.008.023-.018.122-.02.087-.003.164-.015.167-.025.004-.011.045-.028.09-.033.15-.02.316-.032.466.008.02.011.064.023.096.022.036 0 .054.01.046.024-.006.012-.04.024-.073.024-.034 0-.067.01-.074.025-.008.015.017.019.069.009.075-.013.079-.01.05.024-.02.022-.04.039-.047.039-.006 0-.01.005-.008.012.001.007.032-.003.067-.02.035-.02.08-.029.1-.021a.217.217 0 00.103-.016.21.21 0 01.143-.009l.081.022-.08.03a.531.531 0 00-.181.103.105.105 0 01-.059.021c-.017 0-.037.017-.046.037-.007.02-.023.037-.034.036-.01 0-.036.022-.058.052l-.039.051.033-.017c.02-.01.034-.005.037.013.003.015.022.03.047.03.049.004.055.021.021.066-.016.02-.023.022-.02.004.002-.013-.02-.022-.06-.021-.006.008-.014.015-.02.015-.005 0-.008-.006-.009-.014-.068.007-.08.043-.006.044.033 0 .068.049.06.087 0 .007-.017.014-.037.014-.05 0-.051.05.001.053l.044.003-.043.017c-.026.008-.046.025-.046.04-.004.04-.099.062-.143.034-.022-.016-.045-.024-.051-.016-.006.008.011.028.04.046.049.028.058.06.03.082-.022.018-.095-.034-.09-.06.004-.015-.004-.025-.016-.025-.04 0-.012.073.037.092.042.016.088.093.08.134-.006.029-.121.014-.126-.017a.08.08 0 00-.033-.044c-.024-.015-.031-.01-.031.02 0 .029-.011.044-.035.052-.02.007-.011.012.022.018a.252.252 0 01.09.024c.027.015.016.026-.083.074-.161.075-.349.117-.376.082-.019-.024-.024-.021-.025.013 0 .02-.297.042-.307.043-.009 0 .242.024.207.058a.367.367 0 01-.128.081.44.44 0 00-.099.045c-.03.024-.031.019-.01-.02.02-.042.02-.044-.015-.005a.27.27 0 01-.107.062c-.056.016-.067.024-.062.055.004.028 0 .036-.023.04-.016 0-.023.008-.014.015.024.02.004.052-.064.097-.038.027-.068.06-.066.072a.403.403 0 01-.056.116c-.043.069-.064.088-.097.088-.021-.002-.037-.012-.032-.025a.015.015 0 00-.015-.021c-.012 0-.02-.01-.014-.023.003-.01-.011-.015-.034-.007-.064.02-.094-.01-.122-.133zm-.194 12.583c.003 0 .007-.001.007-.003 0-.018.034-.01.053.01.004.004.006.01.008.018l-.068-.025zm-.162-.911c.003.008-.003.015-.013.013a.042.042 0 01-.024-.022c-.004-.01.003-.015.013-.013.01.002.02.012.024.022zm.054.512c-.023-.01-.04-.01-.036-.002.002.007.014.017.024.02.012.003.012.016 0 .04-.01.018-.027.027-.036.02-.01-.01-.02-.006-.02.007-.003.015-.034.02-.09.014a1.526 1.526 0 00-.128-.009.568.568 0 01-.257-.087c-.048-.027-.088-.044-.095-.04-.015.013.09.09.17.126.043.018.063.032.056.038-.007.01-.144-.041-.261-.1-.036-.017-.048-.019-.036-.005.008.011.038.03.067.04.03.01.064.029.078.042.008.007 0 .007-.017.002a7.763 7.763 0 01-.944-.542.111.111 0 00-.024-.018.112.112 0 01-.03-.024.298.298 0 00-.043-.037c-.013-.009.002-.003.033.012.03.015.052.02.048.012-.003-.008-.034-.025-.068-.039-.037-.015-.063-.03-.069-.042-.005-.011.005-.01.03.006.145.077.308.151.469.188.018-.002.039.004.046.014a.199.199 0 00.063.031.18.18 0 01.062.03c.006.007.047.03.093.051.07.032.083.034.089.016.004-.016.017-.014.041 0a.456.456 0 00.065.034l.079.04c.032.018.045.02.04.007a.055.055 0 00-.023-.024c-.008-.003-.006-.01.004-.017.015-.008.024-.004.046.025.025.031.037.037.144.054.109.018.154.011.141-.017a.78.78 0 00-.048-.07c-.098-.132-.094-.125-.056-.115.028.008.032.003.02-.04-.012-.038-.019-.05-.028-.047-.007.003-.016-.005-.02-.016-.005-.012.013-.032.04-.046a.198.198 0 00.058-.04.406.406 0 01.149-.048c.021-.002.038-.009.04-.013.004-.004.021-.005.044.002l.039.011-.035.006c-.02.004-.033.015-.03.023.003.01-.008.014-.024.01-.044-.01-.099.02-.1.056 0 .018-.009.026-.023.017-.018-.012-.04.001-.073.043a.135.135 0 00.02.042c.015.027.03.039.046.04.028.003.132.096.13.117 0 .01.013.023.03.033.023.012.032.025.039.055.006.022.015.042.022.044.008.002.011.007.009.013-.001.005.016.024.038.041l.042.032-.04-.016zm-.193.255a.15.15 0 01-.049.006l-.056-.026c.003-.008.023-.013.048-.012.078.002.105.017.057.031zm-1.284-.771a1.174 1.174 0 00-.082-.028c-.014-.004-.027-.013-.028-.018 0-.005-.017-.02-.037-.03-.02-.01.008-.001.065.022.106.041.18.089.082.054zm-.043-1.885c.003.01 0 .02-.01.018-.008-.001-.019-.014-.022-.024-.004-.013.002-.02.01-.019.01.002.019.012.022.025zm.294 1.99c.003.009.003.015-.003.013a.049.049 0 01-.02-.02c-.004-.01-.001-.015.004-.013a.046.046 0 01.019.02zm.108-1.257c-.02.015-.023.012-.025-.014 0-.016.009-.028.022-.026.032.006.032.02.003.04zm.068.023c-.03.008-.033.006-.024-.022.006-.017.027-.027.045-.024.042.008.029.035-.021.046zm.34 1.41c0 .008-.01.012-.021.008a.098.098 0 01-.036-.026c-.009-.011 0-.014.021-.008.02.007.036.018.036.026zm.234-.225c.007-.02.023-.019.032.005.003.009-.002.021-.011.028-.018.013-.032-.007-.021-.033zm-.202.09c.012.002.021.01.018.013-.001.004-.01.003-.021-.005-.011-.008-.01-.012.003-.008zm.03.052c.058.018.057.025-.003.019-.026-.004-.046-.013-.044-.02 0-.008.02-.006.046.001zm.152.105a.106.106 0 00-.066-.017c-.03.003-.047-.002-.063-.02-.015-.017-.016-.021-.004-.02a.145.145 0 00.036.006l.062.005c.051.007.06-.006.013-.02-.025-.007-.032-.014-.024-.02.006-.006.002-.027-.01-.046-.014-.026-.014-.038-.003-.039.034-.005.048.005.118.084.12.134.118.172-.008.141-.074-.016-.08-.02-.04-.03.011-.003.01-.005-.011-.024zm.189-.345c.003.009-.004.015-.015.012-.018-.005-.02-.008-.01-.018.016-.014.017-.014.025.006zm-2.12-7.371c.043.018.074-.03.062-.092-.012-.059.133-.025.18.04.022.033.038.065.034.07a.391.391 0 01-.073.01.238.238 0 00-.086.018c-.029.02-.172-.02-.165-.042.004-.01.027-.014.048-.004zm-.035-.603c.007-.016.018-.026.025-.026.009.001.01.012.004.028-.005.013-.016.027-.025.026-.007 0-.009-.014-.004-.028zm-.14.62c.01.02.002.028-.033.025-.025-.002-.046-.018-.046-.032 0-.035.063-.03.08.008zm.03-.244c-.017-.001-.027-.021-.024-.043.002-.022-.01-.042-.026-.043-.018-.001-.033-.016-.032-.03.001-.016-.014-.028-.034-.03-.018 0-.028-.015-.023-.028.012-.032-.032-.038-.06-.007a.234.234 0 01-.064.038c-.037.017-.037.014-.006-.024a.255.255 0 01.087-.062c.086-.032.123-.006.26.175a.7.7 0 00.067.076c.039.034-.015.071-.088.065-.059-.005-.067-.014-.05-.045.016-.027.015-.04-.007-.042zm.556.296c-.005.014-.027.026-.05.024-.022-.002-.036-.017-.03-.03.005-.017.026-.027.049-.025.022.002.036.015.03.031zm.054.766c-.004.014-.015.026-.025.025-.009 0-.013-.015-.009-.029.005-.016.016-.026.025-.025.01 0 .014.012.01.029zm1.112-3.438c-.018.003-.036-.016-.042-.04-.006-.022-.006-.033.001-.025.008.011.026.03.042.041.025.019.025.022 0 .024zm.133-.28c-.019-.011-.037-.03-.04-.04-.006-.043.053-.027.066.015.01.038.008.04-.026.024zm.458.018c-.025.046-.028.057-.007.04.016-.007-.01.02-.057.065-.086.083-.139.112-.083.048.025-.03.007-.033-.086-.028-.07.002-.112-.004-.106-.02.006-.016.019-.027.026-.027.009 0 .022-.019.031-.04.009-.021.022-.04.03-.04.007 0 .026-.022.044-.051a.933.933 0 01.093-.12c.074-.08.145-.104.074-.024-.063.072-.1.126-.07.104.013-.01.027 0 .031.022.006.027.026.035.062.025.048-.013.05-.01.018.046zm-.03.185c-.013.018-.033.026-.045.015-.019-.016-.017-.022.026-.068.048-.053.07-.067.041-.026-.011.013-.014.03-.007.035.007.003 0 .025-.015.044zm-1.143-.53c-.006.012-.018.018-.024.01-.005-.009-.009-.019-.006-.024.002-.005.014-.01.024-.01.01-.001.013.008.006.023zm.235-.299a.15.15 0 01-.031.026c-.014.008-.02.004-.014-.009.007-.015.021-.025.031-.026.01 0 .017.004.014.01zm.146-.543a.09.09 0 01-.05.027c-.016.002-.02-.006-.01-.021a.08.08 0 01.05-.028c.017-.002.021.007.01.022zm.097.013c.01 0 .01.009-.002.024-.01.013-.028.026-.038.027-.01 0-.008-.011.002-.024a.073.073 0 01.038-.027zm-.048-.112c-.02-.019-.035-.014-.087.025-.05.037-.062.04-.064.018 0-.015-.016-.02-.037-.009-.03.015-.03.015.004-.018a.608.608 0 00.08-.099.302.302 0 01.066-.074c.015-.008.027-.014.03-.017.002 0-.003.01-.012.024-.01.014-.013.03-.005.031.044.013.082.051.072.07-.008.015-.002.024.011.022.013-.001.019.008.011.022-.017.031-.04.034-.07.005zm.178.022c-.008.008-.02.011-.024.004-.006-.006.001-.014.015-.015.014-.003.018.003.01.011zm.237-.503a.159.159 0 01-.047.039c-.007.001.007-.016.03-.037.054-.048.06-.048.017-.002zm.12.092c.017-.001.02.003.01.01-.012.006-.026.008-.031.004-.005-.006.004-.012.02-.014zm-.035-.007c-.032.057-.06.08-.1.085-.053.005.003-.075.067-.1.027-.012.052-.021.054-.024l-.021.039zM2.16 13.168a.05.05 0 01.03-.022c.014-.003.01.01-.015.052a.546.546 0 01-.036.056c-.007.001.011-.07.021-.086zm-.253-.14c-.036.02-.017-.013.021-.038a.222.222 0 00.045-.04.062.062 0 01.025-.024c.01-.003.008.001-.013.02-.012.013-.022.024-.017.023.014-.004-.034.042-.061.059zm1.872 9.441c.004.032-.004.055-.016.052-.012-.003-.021-.012-.02-.021.001-.01-.012-.014-.03-.013-.02.004-.042-.005-.05-.019-.011-.014-.013-.023-.004-.021.01.002-.01-.038-.042-.09-.043-.07-.065-.094-.084-.094-.017 0-.023-.006-.016-.013.013-.017.006-.101-.01-.105-.005 0-.014.013-.017.031-.008.027-.01.025-.02-.027a.165.165 0 00-.038-.08c-.013-.01-.023-.026-.019-.031.003-.005.02.006.04.028.02.021.035.036.035.033-.024-.126-.044-.154-.109-.158-.012.001-.012-.01.003-.026a.044.044 0 01.056-.009c.026.016.031.005.023-.048l-.012-.087c-.017-.121-.033-.178-.054-.182-.013-.002-.018.019-.01.052.005.03.003.06-.007.061-.014.003-.019-.004-.02-.032a.902.902 0 00-.018-.12.3.3 0 01-.01-.106c.005-.013-.006-.056-.02-.094a.342.342 0 01-.021-.178.82.82 0 00-.027-.36c-.02-.053-.026-.093-.017-.1.007-.008.006-.028-.003-.047a.556.556 0 01-.019-.145c-.008-.2-.046-.395-.082-.59a.542.542 0 00-.22-.377c-.113-.096-.215-.223-.211-.264a.669.669 0 00-.06-.153 4.704 4.704 0 01-.134-.308 1.61 1.61 0 00-.119-.25c-.066-.09-.091-.238-.051-.293.033-.043.031-.11-.002-.11-.014-.002-.028-.027-.035-.058-.015-.075.01-.293.035-.29.01.003.02-.027.019-.068 0-.04.013-.067.018-.069.05-.02.082-.362.086-.477a.516.516 0 00-.009-.13c-.012-.026-.088.055-.091.1-.005.05-.038.043-.063-.015-.01-.025-.031-.052-.047-.057-.045-.018-.046-.018-.034-.056.012-.038-.012-.084-.052-.1-.007-.002-.005-.03.006-.063a.358.358 0 00.003-.136.296.296 0 01-.007-.102c.004-.01-.005-.022-.019-.023-.06-.008-.145-.103-.155-.175-.02-.12-.035-.137-.09-.099-.044.032-.054.027-.112-.046a.5.5 0 01-.072-.111.219.219 0 00-.031-.052.367.367 0 01-.049-.179.231.231 0 01.03-.069c.04-.063.054-.175.048-.327a.986.986 0 01.001-.146.86.86 0 00.006-.14c0-.067.012-.164.026-.215.017-.062.02-.101.009-.118-.018-.025-.018-.024-.05.056a.436.436 0 00-.028.103.965.965 0 01-.014.135 1.469 1.469 0 00-.013.124c0 .008-.012.057-.026.11-.015.053-.02.1-.014.109.013.01.002.077-.015.097-.02.023-.025-.155-.008-.196a.164.164 0 00.011-.084c-.03-.125-.028-.115.004-.146.028-.027.031-.036.03-.093-.001-.035.015-.13.036-.212.044-.166.046-.213.011-.234-.013-.006-.02-.023-.014-.032a.858.858 0 00.028-.12.472.472 0 01.045-.137c.014-.022.017-.03.006-.021-.018.017-.006-.062.02-.112a.117.117 0 00.016-.044c.062-.153.149-.293.231-.434.07-.118.093-.16.109-.207.019-.057.02-.059.03-.05.033.034.042.033.06-.008.025-.06.03-.092.014-.107-.009-.005-.01-.02-.003-.031.007-.012.009-.02.003-.02-.016.003-.034.058-.03.098.003.023-.002.043-.014.051-.021.016-.053-.133-.035-.163.006-.011.014-.016.017-.01.015.027.026.03.039.01.008-.014.005-.025-.007-.022-.019.003-.014-.019.011-.05a.507.507 0 00.024-.053c.013-.03.012-.042-.002-.032-.018.014-.014.005.017-.04.033-.046.035-.05.012-.025-.054.058-.054.04-.001-.042.03-.047.043-.071.034-.065-.02.015-.008-.077.011-.097.009-.009.007-.014-.004-.012-.019.004-.02.007-.032.045-.008.023-.008.036-.001.03.006-.006-.001.009-.015.03-.021.036-.026.041-.025.022A.33.33 0 012.258 13c.013-.027.015-.04.006-.033-.008.008-.01.004-.002-.007.009-.013.021-.025.029-.027.015-.004.056-.071.05-.082-.003-.003-.01.006-.022.027-.01.02-.021.035-.026.036-.006.002-.003-.008.004-.02l.026-.043a.18.18 0 00.019-.044c.006-.02.004-.019-.005 0-.008.016-.016.027-.023.029-.007.002-.012.008-.014.018a.616.616 0 01-.065.13c-.014.003.03-.102.064-.148.02-.029.026-.037.014-.023-.03.038-.047.04-.049.011 0-.023.027-.082.012-.08-.032 0-.022-.018-.025-.027-.008-.026-.016-.018-.037.018-.013.022-.022.032-.034.035a.295.295 0 00-.058.043c-.046.042-.086.061-.044.022.017-.017.022-.023.015-.02-.014.004.066-.082.094-.1.018-.013.02-.015.006-.012a.51.51 0 00-.118.102.156.156 0 01-.036.033c-.03.022-.062.062-.043.056.01-.004.008 0-.021.03a1.902 1.902 0 01-.08.07.381.381 0 00-.056.052.061.061 0 01-.022.02.38.38 0 00-.06.05.661.661 0 01-.087.071.52.52 0 00-.044.032l.019-.031c.016-.014.026-.02.025-.015-.002.007.006 0 .016-.01a1.16 1.16 0 01.077-.076.992.992 0 00.102-.106c.038-.048.04-.052.02-.043a.108.108 0 00-.032.025c-.005.008-.01.009-.01-.001.001-.01-.01-.01-.028.001-.026.018-.026.014 0-.025.02-.029.024-.038.015-.035.053-.079.108-.157.165-.234a.35.35 0 00.07-.058l.033-.045c.019-.025.018-.027-.005-.01a.342.342 0 01-.029.02l.075-.097a.058.058 0 00.03-.019c.024-.032.042-.064.026-.046-.006.007-.01.01-.013.01a7.52 7.52 0 01.194-.233c.025-.02.054-.04.092-.065.015-.011.038-.026.053-.038.015-.01.029-.019.03-.017a.186.186 0 00.03-.006.204.204 0 01.043-.007.128.128 0 00.046-.008c.112-.037.066.007.118.02.024.006.037.002.067-.024a.705.705 0 01.198-.105.27.27 0 00.077-.047c.025-.023.029-.022.024.005-.008.04.006.039.045 0 .018-.02.025-.021.02-.005-.002.012.014.01.043-.004a.103.103 0 01.085-.008c.023.01.064.011.087.007.048-.012.08.01.037.023a.13.13 0 00-.045.033c-.014.016.006.016.072-.003.11-.03.156-.022.127.025-.012.018-.013.025-.004.018a.233.233 0 00.04-.056c.017-.033.03-.045.067-.062.026-.013.048-.028.05-.034.002-.006-.023.003-.054.021-.03.016-.05.02-.048.013.013-.035.11-.064.12-.034.016.041.18.028.228-.02.044-.044.05-.066.02-.06-.02.004-.013-.003.031-.037.055-.042.086-.04.09.007.002.028.002.028-.02.034a.13.13 0 01-.038.007c-.008-.001-.012.008-.009.023.004.014-.004.038-.014.052-.01.014-.013.03-.005.035.013.006.019.001.034-.032a.11.11 0 01.06-.061c.046-.023.09-.067.063-.062-.01.002-.008-.009.002-.02.012-.015.017-.024.013-.025-.048-.002-.06-.025-.032-.072a.216.216 0 01.065-.071c.044-.03.061-.054.082-.113a.117.117 0 01.043-.066c.027-.023.211-.069.2-.051a.432.432 0 01-.147.106c-.01-.006-.034.01-.066.042-.029.028-.046.05-.038.048.02-.004.026.103.007.115-.033.02-.042.051-.014.047.019-.003.023.008.008.04-.027.054-.022.056.034 0 .036-.034.043-.035.056-.016.01.02.008.028-.016.049-.024.02-.029.029-.025.054.001.039.027.026.052-.024.013-.026.022-.035.028-.028.006.006.034-.013.062-.04.03-.03.048-.052.04-.05-.02.002.009-.04.038-.055.013-.006-.01-.014-.047-.018-.054-.003-.07-.018-.07-.053.001-.045.003-.047.056-.109.066-.075.12-.11.186-.122.048-.008.048-.007.008.025a.21.21 0 00-.05.046l-.026.048c-.01.018-.013.04-.006.052.017.028.02.028.037-.002.009-.013.007-.021-.002-.02-.008 0-.006-.018.005-.042.026-.058.066-.088.159-.12.056-.019.072-.02.066.004-.007.022-.003.022.008.002.01-.019.034-.03.071-.036.062-.01.11.02.082.053-.01.013-.006.02.008.019.012-.002.03.022.038.051.012.034.027.045.042.03.03-.025.088 0 .072.03-.006.012.003.018.019.017.048-.003.054.001.035.025-.013.018-.008.022.016.01.022-.01.037-.008.033.006-.003.017-.015.027-.034.031-.024.005-.026.01-.002.02.021.013.022.017 0 .022-.083.014-.061.088.035.104.024.005.041.02.04.035-.003.014.016.03.043.035l.048.012-.06.058c-.035.034-.067.055-.068.048-.004-.007-.013.003-.023.023-.02.042-.06.035-.07-.013-.018-.075-.032-.086-.075-.05-.041.037-.042.039-.03.076.006.021.02.037.03.036.01 0 .018.023.018.055.001.046-.004.063-.035.1-.032.037-.038.035-.083-.004-.058-.057-.083-.036-.035.027.035.046.03.113-.004.088-.01-.005-.034-.018-.055-.024-.02-.009-.038-.027-.04-.039-.004-.012-.014-.016-.028-.005-.028.023-.058-.032-.034-.063.008-.01.006-.02-.007-.018-.012 0-.024-.015-.028-.031-.002-.023-.035-.025-.109-.012-.058.01-.097.009-.09-.003.022-.044.079-.086.098-.074.012.006.045.003.076-.01.04-.012.053-.023.056-.046.002-.023.012-.036.04-.05.101-.055.132-.143.066-.181-.024-.012-.037-.032-.031-.044.006-.012-.004-.015-.024-.009-.019.01-.028.008-.02-.002s.007-.034-.004-.052c-.024-.038-.03-.04-.043-.001-.008.023-.036.032-.123.04a.412.412 0 00-.1.014.597.597 0 00.04.028c.015.015.023.036.013.05-.011.015-.025.025-.03.022-.016-.007-.033.036-.025.068l.006.033-.041.031a.292.292 0 01-.08.04.067.067 0 00-.05.042c-.008.023-.012.026-.012.008-.001-.01-.019-.026-.04-.03s-.035-.002-.03.004c.011.02-.18.207-.217.212-.039.005-.104.052-.112.082-.002.011-.017.022-.03.024-.036.004-.145.097-.222.191-.096.116-.118.16-.088.174.017.005.019.034.008.07-.017.052-.01.058.04.058.038-.001.07.017.083.047.012.027.032.049.045.048.014-.001.023.008.018.023-.002.012.025.022.062.02.07-.005.07-.001-.017.166a.216.216 0 00-.005.107c.009.067.016.074.055.05.05-.035.064-.059.107-.192l.029-.093.08-.054a.425.425 0 00.108-.092c.047-.067.07-.154.053-.184-.018-.026-.018-.028.027-.077a.387.387 0 00.088-.154.73.73 0 01.058-.125c.01-.01.036-.015.06-.008.022.008.063.01.087.008.047-.009.092.034.076.066-.005.01.01.024.032.033.04.012.038.017-.004.105-.039.08-.04.093-.017.082.015-.006.031.001.033.018.008.045.084.007.166-.086l.071-.08.009.144a.56.56 0 01-.008.187.081.081 0 00-.005.067.125.125 0 01.015.05c-.001.014.014.027.03.032.016.002.03.007.033.01 0 .007.019.018.04.023.012.002.01.008-.011.023-.02.016-.014.035.015.058.038.03.04.045.014.109-.028.064-.042.077-.106.1a.671.671 0 00-.146.083c-.061.046-.088.05-.21.039-.107-.01-.147-.004-.189.028a1.13 1.13 0 00-.25.205c-.063.069-.068.077-.023.034.103-.098.194-.15.27-.155.057-.003.07.007.058.036a.116.116 0 01-.067.056c-.039.014-.044.02-.02.022.02.002.024.018.008.056-.028.066 0 .13.06.142.036.005.061-.008.108-.062.05-.056.057-.059.044-.02-.011.026-.01.048 0 .048.012 0 .007.008-.016.027-.02.016-.03.013-.03-.008.001-.025-.002-.025-.013.002-.014.035-.119.104-.179.12a.373.373 0 00-.09.056c-.033.027-.063.04-.068.029-.01-.019.02-.094.036-.094a.19.19 0 00.06-.042c.043-.04.041-.04-.007-.025a.927.927 0 01-.068.024.483.483 0 00-.057.032 1.172 1.172 0 01-.115.064c-.083.037-.164.138-.163.203.002.027-.014.037-.08.053-.054.01-.079.026-.072.04.006.015-.003.024-.029.023-.028 0-.046.016-.075.067-.024.042-.047.066-.065.066-.018 0-.03.013-.036.037a.291.291 0 01-.045.088c-.03.043-.031.037-.006-.04.02-.062.021-.077.002-.053a.454.454 0 00-.066.192c.002.013-.011.04-.028.061-.023.024-.026.035-.015.035.01 0 .007.013-.003.027-.013.016-.023.018-.028.01-.005-.014-.012-.003-.018.024-.006.032-.017.045-.036.045-.013 0-.04.018-.06.039-.018.02-.042.04-.05.04-.01-.001-.044.028-.078.065-.033.036-.067.065-.076.064-.016 0-.093.108-.115.161a.681.681 0 00-.027.112c-.035.191-.052.263-.086.327-.02.037-.041.066-.05.065-.016 0-.027-.07-.017-.096a.396.396 0 00.007-.083.257.257 0 01.026-.113c.039-.07.019-.176-.026-.146-.026.018-.039.015-.045-.01-.005-.021-.043-.038-.087-.04-.073-.002-.077 0-.097.058-.02.057-.02.057-.061.035-.076-.045-.16-.042-.206.006-.023.022-.051.042-.062.042-.03-.001-.108.113-.14.203a.278.278 0 01-.04.089.922.922 0 00-.083.172.781.781 0 00-.075.29c-.015.155.013.208.09.176.028-.011.054-.014.057-.006.01.025.086-.064.11-.125.03-.082.069-.114.152-.126.074-.011.078.006.02.095a1.158 1.158 0 00-.065.115c-.019.038-.037.066-.04.058-.003-.008-.021.027-.042.079a.633.633 0 01-.062.124c-.031.04-.034.04.096.048.07.005.093.018.1.056.011.047.004.066-.063.224-.068.159-.072.179-.068.247.002.04.015.09.028.113.02.035.03.037.084.004.066-.04.102-.024.124.06.016.054.015.054.08-.021a.536.536 0 00.076-.116c.007-.021.02-.039.027-.038l.031-.004c.008.001.023-.008.033-.02a.052.052 0 01.04-.015c.01.001.048-.02.084-.048.073-.058.086-.045.033.031-.042.059-.041.109.001.064.017-.017.042-.028.057-.027.014.002.03-.013.033-.032.004-.016.006-.024.006-.013 0 .014.01.024.021.025.013.001.03.028.036.062.01.04.03.056.064.052.028-.002.058.01.07.025.012.024.042.024.099.003.072-.026.082-.025.085.015a.086.086 0 00.04.066c.03.018.035.035.014.075-.02.043-.019.054.02.059.03.003.06.049.091.134.046.121.056.131.173.157.105.027.129.043.173.128.026.058.068.145.082.198a.445.445 0 00.062.131c.035.037.034.049-.005.12a.268.268 0 00-.037.136c.008.05.011.047.036-.015.022-.055.042-.067.08-.051.072.026.09.074.044.132-.02.026-.03.058-.022.071.01.012.035-.013.057-.056l.04-.078c.046.029.07.043.118.071.095.057.123.086.126.132.006.049.012.055.05.037.03-.014.062-.007.089.013a.333.333 0 00.132.043c.073.008.115.036.217.136a.527.527 0 00.177.13c.041.004.057.028.085.119.02.06.032.142.028.182-.037.143-.135.277-.213.398-.026.038-.03.087-.014.202.009.082.012.195.004.248a.288.288 0 00-.005.105c.005.005-.006.053-.026.101a.415.415 0 00-.03.11c.007.041-.066.092-.123.087-.075-.004-.262.09-.296.15-.014.024-.018.088-.008.149a.281.281 0 01-.02.176 4.916 4.916 0 00-.06.121c.004-.017.002-.035-.007-.045-.018-.02-.046.045-.06.14a.355.355 0 01-.048.133c-.037.05-.05.053-.137.028a.356.356 0 01-.126-.058c-.02-.02-.028-.022-.025-.006a.137.137 0 00.046.054c.022.017.045.05.05.073.006.024.02.046.028.047.031.005.032.056.003.111-.027.055-.089.07-.204.054-.046-.008-.06 0-.048.019a.216.216 0 01.013.083c0 .052-.006.053-.078.027-.073-.025-.076-.023-.051.026a.277.277 0 00.046.068c.017.015.017.02.003.017-.01-.002-.017.003-.012.014a.446.446 0 01.005.126c-.002.016-.019.03-.037.033-.072.01-.031.134.048.149.046.009.05.073.008.096-.02.012-.034.043-.033.068 0 .026-.009.045-.022.043-.034-.007-.031.023.006.087.027.048.028.056.006.053-.02-.004-.015.003.016.02a.136.136 0 01.048.05.42.42 0 00.171.131c.06.012.036.04-.03.038a.148.148 0 01-.093-.03c-.024-.023-.026-.024-.01 0 .014.017.007.023-.02.017-.023-.004-.04-.016-.038-.027.002-.01-.018-.022-.047-.03-.028-.005-.046-.015-.043-.021.002-.01.01-.013.017-.012.006.001.017-.011.025-.029.013-.027.013-.03-.012-.035-.02-.004-.023-.01-.017-.032.008-.022.004-.029-.016-.033-.016-.003-.024.018-.022.05zm-1.964-4.542c-.006-.002-.013-.022-.016-.045-.002-.023.001-.033.009-.023a.12.12 0 01.014.044c.002.015-.002.025-.007.024zM.738 15.895a.1.1 0 01-.019.035c-.006.006-.004-.009.005-.036.009-.027.017-.042.02-.038a.097.097 0 01-.006.039zM3.235 11.6c.047-.048.066-.07.066-.08 0-.007.015-.02.041-.036a.305.305 0 01.086-.032.387.387 0 00.07-.018c.037-.015.069.009.047.034-.013.016-.007.017.015.007.025-.011.03-.008.018.01-.014.02-.007.02.033 0 .035-.017.048-.018.042 0-.007.018 0 .016.025-.006.051-.042.068-.043.055 0-.015.059.012.044.033-.017.017-.047.019-.05.043-.056a.112.112 0 00.045-.03c.022-.026.093-.05.08-.03a.3.3 0 01-.04.044c-.026.025-.033.037-.054.102-.016.048-.017.075-.004.074.012-.003.03.006.04.017l.018.021-.039.013c-.02.006-.035.016-.032.02.026.034-.096.084-.136.058-.014-.009-.032-.004-.054.015-.058.048-.24.11-.232.081.004-.014-.008-.02-.027-.016-.017.003-.036-.002-.042-.013a.516.516 0 00-.01-.02l.055-.03a.325.325 0 01.09-.03c.022-.003.045-.013.05-.021.007-.011-.032-.006-.083.009-.053.015-.09.02-.085.008.005-.012.021-.024.04-.031.036-.013.034-.018-.005-.022l-.026-.004.055-.05.054-.05-.033.02a.523.523 0 00-.118.094c-.027.04-.103.069-.125.05l-.022-.019.066-.066zm.311-.314c.103-.077.21-.123.172-.076-.03.038-.104.083-.09.057.01-.016-.002-.008-.03.017-.024.022-.04.033-.034.025.005-.008-.001-.004-.014.008a.115.115 0 01-.059.029l-.033.004.088-.064zm.01.049a.108.108 0 01.04-.03c.016-.005.014-.001-.008.019-.036.032-.057.04-.032.011zm.238-.088c.008.012.03.017.05.01.036-.01.036-.01.035-.037 0-.022.006-.03.024-.049.038-.032.047-.032.036.006-.007.026 0 .03.037.013.028-.013.042-.014.032 0a.22.22 0 01-.12.085.546.546 0 00-.13.057c-.067.037-.09.045-.094.034-.002-.015 0-.018.022-.026.018-.006.024-.011.023-.022 0-.008-.012-.006-.026.005a.114.114 0 01-.046.024.175.175 0 00-.04.007l-.022.005.053-.051c.043-.043.062-.056.103-.068.026-.007.055-.004.063.007zm.017-.122c.012-.005.013 0 .005.007-.007.007-.016.011-.019.007-.003-.003.004-.01.014-.014zm.097-.034c.032-.01.045-.008.033.005a.182.182 0 01-.067.038c-.025.008-.039.005-.032-.005.008-.012.037-.028.066-.038zm.017-.037c.026-.015.05-.027.053-.03.003 0 .01.002.013.008.006.008-.01.017-.053.03-.054.017-.055.016-.013-.008zm.123.308c.016-.017.018-.023.006-.02-.026.006.002-.034.035-.05.054-.024.104-.039.112-.031.008.004.001.013-.028.04-.036.034-.036.035-.014.042.03.01-.012.072-.055.082a.095.095 0 00-.048.032c-.011.016-.025.013-.036-.011-.012-.018-.03-.037-.04-.04-.012-.002-.013-.015-.003-.027.011-.013.023-.015.031-.005.01.01.023.005.04-.012zm-.011-.16c.018-.005.013.007-.013.03-.01.008-.014.006-.01-.006.004-.01.015-.022.023-.024zm.086-.07c.013.02.017.018.035-.009.014-.024.02-.027.024-.014.009.02.034.016.032-.008-.002-.012.012-.022.05-.032.043-.011.05-.007.031.028a.196.196 0 01-.117.103c-.027.007-.028.002-.006-.027.024-.032.02-.033-.025-.012-.033.016-.051.02-.046.006.004-.01-.004-.017-.016-.014-.014.004-.02-.002-.017-.012.01-.027.036-.031.055-.008zm-.016-.07c.002.013 0 .017-.015.02-.01.003-.013-.004-.01-.013.01-.025.023-.029.025-.008zm.062-.12c.01-.016.028-.025.054-.025a.904.904 0 01.072-.003c.036-.002.054.024.036.053-.014.023-.062.034-.053.011.005-.011-.026-.01-.063 0-.05.013-.06.013-.035-.005.035-.024.034-.023.005-.017-.016.004-.024-.002-.016-.014zm.233.166c.015.043-.051.085-.09.059l-.017-.01c.016-.011.025-.017.04-.03.053-.038.059-.04.067-.02zm-.02-.09c.01-.013.025-.02.034-.017a.634.634 0 00.084.001c.04-.002.073.011.078.029.008.03.028.026.176-.012.12-.033.173-.038.181-.021l.01.022-.034.023c-.021.014-.134.04-.252.065-.166.031-.208.036-.203.014.004-.016.01-.03.015-.03.005-.002.009-.016.009-.03-.002-.015-.02-.024-.044-.018-.055.013-.077 0-.054-.027zm.011-.11c.008-.012.023-.02.037-.017a.17.17 0 00.05-.003c.018-.005.019.002.001.024-.018.025-.016.033.008.033.032-.003.03-.001-.016.012-.027.01-.05.012-.048.004 0-.007-.003-.013-.008-.014-.023 0-.036-.02-.024-.039zm.02-.084c.014-.004.017-.002.006.006-.01.007-.021.01-.025.008-.003-.004.005-.01.019-.014zm.194.142c.004-.001.004.006 0 .019-.004.01-.012.022-.018.023-.006.001-.005-.009.001-.02a.08.08 0 01.017-.022zm-.004-.037c.008-.026.032-.032.037-.008.002.014-.001.019-.02.023-.013.003-.02-.005-.017-.015zm-.07-.148a.14.14 0 01.046-.039c.015-.007.03-.02.032-.027.006-.015.025-.026.086-.047.021-.007.075.006.104.026a.064.064 0 00.028.005c.01.002.026.005.033.013.012.006.019.003.023-.013.006-.018.034-.029.108-.044a.42.42 0 00.116-.036c.016-.016-.04-.01-.143.018-.04.011-.047.01-.027-.008.025-.023.028-.027.012-.023a.106.106 0 00-.04.03c-.023.03-.079.028-.097.001-.018-.024.007-.046.078-.068a.552.552 0 00.106-.045.136.136 0 01.077-.02.095.095 0 00.065-.022.622.622 0 01.149-.066c.169-.054.49-.16.667-.09a.301.301 0 01-.108.05c-.053.016-.094.037-.09.045.004.007-.021.024-.058.04-.035.014-.1.046-.143.07a1.471 1.471 0 01-.275.123c-.04.01-.06.045-.02.038.024-.003.024-.003-.014.033a.212.212 0 01-.083.046c-.024.004-.048.016-.054.028a.14.14 0 01-.044.04c-.033.02-.034.023-.01.032.034.016.007.02-.237.077-.2.045-.249.041-.13-.014.043-.02.051-.027.043-.039-.007-.008.013-.016.053-.02.036-.002.062-.009.058-.014-.004-.003 0-.015.006-.024.009-.01-.005-.01-.028-.004-.05.015-.057.004-.023-.027.018-.015.013-.015-.013-.002-.118.061-.155.074-.182.066-.043-.013-.043-.027.005-.055.032-.017.027-.018-.014-.005-.061.018-.088.006-.061-.03zm1.968-.673c.026-.004.042.003.035.013-.012.02-.093.021-.087.003.002-.005.025-.013.052-.016zm1.147 1.744c-.058-.006-.098-.021-.086-.026.03-.02.031-.061.002-.06-.02 0-.02-.007 0-.039.022-.034.018-.039-.025-.038-.056.002-.039-.037.028-.065.028-.011.046-.004.06.024.01.028.03.035.048.022a.374.374 0 01.12-.031c.05-.01.097-.025.1-.038.004-.013.011-.024.016-.024.02 0 .134.117.13.13-.033.109-.27.159-.393.145zm-.42 1.23c.03-.031.072-.06.097-.063.035-.003.034-.009-.014-.024-.03-.013-.063-.015-.071-.01-.01.01-.014.004-.012-.01.002-.013.022-.033.044-.042.033-.014.036-.022.022-.057-.013-.037-.008-.043.029-.044.024 0 .049-.02.059-.042.008-.022.007-.04-.001-.04-.01 0-.014-.019-.011-.04.004-.03-.008-.035-.049-.02-.049.014-.052.011-.03-.056.022-.073.002-.1-.027-.037-.01.019-.008.008 0-.024.012-.04.01-.054-.008-.043-.019.011-.015-.008.017-.078a.539.539 0 01.061-.108.127.127 0 01.07-.023c.043.002.044.004.015.037-.05.052-.045.06.02.047.066-.015.073.022.017.104-.03.043-.03.049-.001.064.017.008.033.04.034.066.002.027.016.06.032.067.016.008.035.045.043.08.008.038.028.068.046.067.046 0 .055.056.015.098-.02.019-.032.046-.027.063.004.016-.004.033-.016.033a.723.723 0 01-.078.012c-.03.006-.1.019-.156.028a.608.608 0 00-.136.036c-.028.011-.023.003.017-.042zm-.01-.702c.008-.016.022-.028.03-.028.01 0 .01.01.002.027-.007.013-.022.027-.03.027-.01 0-.009-.013-.002-.026zm-.233.473c-.01-.008-.015-.037-.009-.067.006-.035.021-.052.049-.053.021 0 .046-.02.056-.042.023-.057.148-.061.153-.002.002.024-.008.054-.022.065-.013.011-.022.036-.018.052.01.048-.042.13-.094.148-.028.01-.07.024-.095.036-.025.009-.054.004-.065-.009-.018-.024-.014-.032.021-.071.03-.034.036-.05.024-.057zm1.304-2.536c.012.012.022.013.021.003a.228.228 0 01.001-.04c.003-.027.065-.018.074.012.006.015.017.021.028.014.01-.007.022-.002.026.008.002.013.03.031.057.04a.57.57 0 01.12.064c.04.024.077.041.083.036.01-.004.01.003.001.018-.02.041-.15.041-.136.002.008-.03-.038-.08-.075-.08-.013-.001-.036.02-.05.048-.013.027-.032.049-.042.048-.01 0-.024.02-.03.042-.014.037-.02.037-.082-.002-.04-.024-.055-.044-.039-.046.02-.003.016-.01-.012-.021-.037-.018-.034-.021.035-.04.06-.015.068-.023.041-.036a.085.085 0 00-.069.006c-.04.026-.137 0-.125-.038.006-.012 0-.022-.01-.022s-.023-.013-.027-.026c-.008-.032.176-.024.21.01zm.225-.07a.323.323 0 00.107.002c.008-.02.183.012.197.035.017.025-.147.077-.18.055a.55.55 0 00-.113-.032c-.128-.027-.137-.072-.011-.06zm1.552.188l.068.004a5.4 5.4 0 00-.064.022c-.065.024-.078.023-.076-.011.001-.01.033-.017.072-.015zm.25.996c.006.029-.043.051-.063.032a.053.053 0 01-.013-.038c.004-.03.068-.024.075.006zm.027-.24c.014.002.03-.018.036-.044.005-.026.018-.046.029-.045.01.001.014-.015.009-.034-.005-.02-.001-.036.011-.035.012.001.032-.022.046-.051.026-.06.16-.108.272-.096.037.003.077 0 .09-.006.034-.02.122-.008.131.018.005.012-.032.026-.081.032-.16.023-.229.042-.23.063 0 .012-.01.02-.022.019-.033-.005-.142.15-.13.19a.273.273 0 00.07.085l.063.055-.074-.006c-.042-.004-.085-.021-.101-.042a.145.145 0 00-.065-.041c-.044-.007-.096-.065-.054-.061zm.069-.692c.021.003.024.008.015.024-.013.028-.026.026-.035-.005-.004-.014.005-.022.02-.02zm.108-.006c.034.006.061.016.059.023-.004.024-.09.017-.105-.008-.01-.015.01-.02.046-.015zm.116.02a.084.084 0 01.045-.01c.02.003.02.007.001.017a.086.086 0 01-.046.01c-.018-.003-.019-.008 0-.018zm1.13.304c.01-.008.012-.017.006-.018-.006-.004-.007-.018.001-.03.02-.04.167.016.184.068.004.013.028.029.053.04.039.016.048.024.066.063.019.042.015.043-.074.009-.102-.037-.151-.07-.142-.092.004-.007-.02-.017-.052-.022-.043-.005-.055-.01-.042-.018zm.36.185c.014-.036.06-.049.068-.016.001.007.021.02.045.03.038.012.065.034.065.05a.36.36 0 01-.095-.01c-.038-.006-.057-.01-.096-.015l.014-.039zm.605.464c.002.01-.002.018-.01.016-.007-.002-.019-.015-.024-.026-.006-.013-.002-.02.01-.016.01.003.02.014.024.026zm.952.388c.02.023-.01.015-.046-.017-.019-.013-.025-.022-.024-.031.001-.014.042.014.07.048zm-.246-.247a.026.026 0 01.025.008c.005.006.047.03.09.05.073.037.093.052.099.074.003.018-.141-.027-.175-.056-.039-.034-.057-.07-.04-.076zm.27.15a.164.164 0 01.023.013l.039.04a.267.267 0 01-.063-.04c-.02-.02-.02-.023 0-.013zm1.04 1.941c-.004-.013-.003-.02.001-.02.01.004.014.019.009.031-.003.005-.007.002-.01-.01zm.042.55c-.007-.001-.013.013-.012.033.003.028-.003.03-.022.01-.027-.029-.057-.034-.055-.01 0 .01.006.016.01.018.01 0 .012.008.013.028.001.022-.003.021-.019-.008-.021-.039-.032-.115-.017-.112.012.002 0-.048-.03-.128-.025-.063-.017-.06.04.023a.217.217 0 00.051.056c.035.018.07.096.04.09zm.1.535c.021.072.026.113.007.077-.011-.022-.015-.02-.014.003 0 .015-.014.027-.031.025-.023-.003-.03.008-.023.043.01.058-.012.058-.03.001-.008-.028-.017-.04-.03-.043-.018-.001-.018.003 0 .035.024.039.035.093.015.068-.008-.008-.014 0-.015.021-.002.034-.004.034-.02 0-.012-.026-.013-.044-.004-.057.017-.026.01-.045-.014-.043-.01.001-.016.012-.012.024s0 .016-.008.008c-.024-.02-.02.007.006.043.02.025.023.034.034.102.014.098-.008.101-.034.002-.014-.055-.02-.067-.025-.056-.012.018-.024-.028-.02-.079.007-.103.027-.144.066-.14.04.005.043-.015.02-.133-.007-.028-.005-.028.007.008.014.038.016.038.025.008a.409.409 0 00-.021-.206c-.03-.085-.038-.124-.02-.108.012.011.013.007.003-.01-.01-.017-.014-.029-.012-.029.002.001.024.04.046.086.04.079.043.088.052.147.008.056.016.087.051.203zm.026 1.855c-.018-.027-.031-.038-.027-.022.004.017 0 .021-.008.01-.009-.008-.025-.017-.034-.016-.012.001-.022-.012-.027-.038-.006-.023-.011-.035-.014-.027-.003.007-.017-.016-.032-.053-.018-.044-.025-.068-.02-.072.005-.005.002-.033-.006-.064a.88.88 0 01-.019-.092c-.003-.024.005-.036.022-.034.023.004.03.016.046.074a.46.46 0 01.017.11c-.007.064.032.154.07.168.023.008.04.028.05.06.017.047.016.047-.018-.004zm.036.101a.053.053 0 01-.02-.021c-.004-.018.014-.01.025.012.006.013.003.015-.005.01zm.029-.035c.019 0 .03.033.044.13.006.047.005.047-.013.012-.016-.028-.02-.044-.015-.055.003-.01 0-.026-.014-.05-.018-.03-.018-.035-.002-.037zm-.157 1.605c.04-.004.032.025-.009.036-.017.005-.03 0-.027-.013.003-.01.02-.023.036-.023zm.161-1.43c-.003-.032 0-.032.018-.002.012.017.02.039.018.048-.001.01-.008.003-.013-.012-.006-.013-.013-.021-.016-.014-.002.01-.005-.002-.007-.02zm-.01.077c-.015-.02-.017-.033-.017-.081.001-.06.001-.06-.012-.031-.011.026-.014.022-.026-.028-.01-.043-.009-.052.006-.044.026.011.042.054.055.14.01.053.008.063-.006.044zm-.144-.314c-.002-.01.004-.012.013-.006.01.009.023.036.03.063.01.048.01.048-.013.006a.372.372 0 01-.03-.063zm.02.213c.005 0 .003.042-.005.094-.018.116-.032.108-.015-.008.006-.047.015-.085.02-.086zm-.213-.984l.001.05-.025-.05a.3.3 0 01-.032-.12.27.27 0 01.002-.083.049.049 0 01.011-.014.999.999 0 01.043.217zm-.056-2.037a.786.786 0 00.048.08c.032.05.036.058.018.041-.011-.01-.02-.009-.02.004 0 .02-.013-.012-.083-.193a3.276 3.276 0 00-.105-.247c-.02-.032-.061-.145-.051-.142.004 0-.001-.017-.011-.04-.011-.027-.005-.02.023.029.02.036.04.076.043.086.005.022.084.183.11.223.024.039.03.061.015.057-.014-.003-.006.054.014.102zm0 4.439c-.006-.005-.001-.012.01-.015.011-.005.016 0 .01.008-.004.008-.014.012-.02.007zm-.126-.285c0-.01.006-.022.015-.024.019-.003.02.01 0 .032-.007.008-.013.005-.015-.008zm-.063-.083c.017-.027.024-.018.025.036 0 .03-.004.055-.008.056-.013.002-.027-.078-.017-.092zm.024.358c.01.019.036.021.08.008.052-.015.064-.01.066.015 0 .02.018.037.043.038.022.003.038.013.035.024-.005.022-.119.035-.171.019a.485.485 0 00-.078-.013c-.053-.003-.086-.04-.07-.078.014-.04.076-.048.095-.013zm-.285-.706c-.029-.076-.09-.152-.094-.167-.003-.015.004-.02.017-.014a.1.1 0 00.046.01c.013-.001.088.056.114.12.025.066.05.118.057.117.007 0 .02.016.03.034a.807.807 0 00.036.075c.01.022.014.053.007.071-.008.02 0 .068.017.12.028.084.028.093 0 .19-.023.08-.034.106-.053.113-.032.013-.103-.176-.104-.275a.726.726 0 00-.016-.142.28.28 0 01-.011-.088.645.645 0 00-.046-.164zm-.013.2c-.003 0-.007-.011-.008-.022-.002-.014.003-.023.009-.024.007 0 .011.008.009.021-.002.012-.007.024-.01.024zm.023.142c.006.005.007.023.004.034-.003.014-.008.017-.014.012a.064.064 0 01-.004-.035c.003-.014.01-.017.014-.011zm.533.462c-.003.01-.01.022-.015.024-.005 0-.007-.009-.004-.02.003-.013.01-.023.014-.024.006-.001.008.007.005.02zm.045-.36c-.02.023-.025.022-.027.002-.001-.019-.018-.026-.048-.017-.025.005-.043.002-.042-.009.002-.009-.007-.015-.021-.013-.02.004-.025-.008-.018-.062.004-.037.003-.071-.003-.076-.013-.009 0-.136.019-.188.009-.026.02-.034.045-.03.026.007.034 0 .04-.03a.157.157 0 01.045-.073.45.45 0 00.069-.094c.007-.033.016-.062.023-.063.007-.001.016-.04.02-.084.01-.09.02-.101.053-.048a.531.531 0 00.046.062c.02.022.021.024.008.026-.009.004-.013.02-.009.038.003.017 0 .033-.008.035-.007 0-.006.01-.006.023 0 .01-.002.021-.007.022-.006 0-.008.039-.006.085.003.045.007.081.012.08.017-.003 0 .04-.02.05-.016.007-.027.028-.036.065a.426.426 0 01-.04.098.158.158 0 00-.025.061.291.291 0 01-.064.14zm.01.362a.114.114 0 00-.038.024c-.017.017-.02.015-.01-.01.007-.018.02-.031.028-.03.007.003.013-.005.013-.015 0-.012.007-.018.016-.014.02.01.013.042-.008.045zm.03.037c.011-.003.02.005.02.017 0 .038-.014.048-.027.017l-.012-.029.02-.005zm.244-.127c-.005.012-.015.025-.02.026a.308.308 0 00-.056.066c-.053.072-.057.075-.046.032a.37.37 0 01.094-.121c.026-.026.039-.025.028-.003zm.078-.68c-.02.033-.035.042-.08.044-.045-.001-.057.005-.067.036a.164.164 0 00-.005.073c.007.033.01.035.037.002a.128.128 0 01.046-.038c.013-.001.009.008-.023.051-.015.022-.023.032-.04.054v.065c0 .037.002.077.004.09.003.028-.012.1-.02.103-.014.003-.01-.026.005-.056.02-.037.006-.038-.016 0-.01.018-.015.013-.016-.02 0-.027.002-.06.004-.071.003-.013 0-.023-.003-.026a.332.332 0 00-.034.098.396.396 0 01-.042.116c-.012.01-.011-.002.005-.055.014-.046.02-.077.014-.095a.543.543 0 01.047-.201.214.214 0 00.02-.062c.01-.05.063-.14.072-.121.015.025.07.016.09-.014.031-.048.033-.023.002.028zm0 .835c.002-.002 0 .006-.002.018-.003.011-.013.024-.023.025-.017.006-.017.004.003-.018a.234.234 0 01.023-.025zm-.005-.512c-.006.002-.012-.006-.013-.017 0-.012.007-.021.016-.024.01-.002.016.005.013.017-.002.01-.01.022-.016.024zm-.029-.93c.005-.033.01-.058.014-.059a.812.812 0 01.063.192c0 .011-.008.015-.016.01-.013-.01-.013-.001 0 .033.011.036.011.047 0 .049-.022.003-.04-.02-.056-.082-.012-.043-.019-.051-.034-.042-.012.004-.02.02-.02.037-.001.016-.005.012-.01-.012a.141.141 0 01.01-.075c.01-.02.02-.025.023-.014.007.033.017.02.026-.037zm.112 1.154a.115.115 0 01-.014.037c-.009.016-.013.02-.01.007a.145.145 0 01.013-.037c.004-.01.01-.013.01-.007zm0-.305c.025-.006.035.001.034.021-.001.024-.005.03-.02.021a.042.042 0 00-.033-.001c-.008.002-.015-.002-.015-.014 0-.01.014-.022.034-.027zm.017-.322c.008-.026.01-.024.01.008-.001.024.001.028.004.011.004-.017.007-.025.008-.02.002.008-.046.166-.051.167-.004.001.02-.136.03-.166zm.062.107c.009-.004.012.001.008.008-.003.007-.01.01-.015.006-.005-.005-.001-.012.007-.014zm.528.339c.004.003.005.014.002.02s-.006.003-.007-.01c0-.017 0-.019.005-.01zM8.261 9.004a8.261 8.261 0 100 16.522 8.261 8.261 0 000-16.522z" fill="#EFEFEF"/><path d="M13.102 13.334c.01.028.016.036.012.016a.143.143 0 00-.019-.048c-.007-.01-.004.004.007.032zm.149-1.542c.002 0-.002-.01-.007-.02a.072.072 0 00-.02-.025c-.005-.002-.003.007.006.02a.116.116 0 00.021.025zm-.465 1.506c-.006 0-.007.01-.002.025.005.013.018.027.028.028.01 0 .01-.011.002-.025-.009-.016-.02-.027-.028-.028zm-2.78 4.609c-.007-.008-.027.003-.046.03-.019.025-.03.05-.023.056.007.008.028-.004.047-.03.018-.025.03-.05.022-.056zm.491-3.625c-.02 0-.024.008-.009.017.015.008.031.006.035-.002.006-.008-.006-.017-.026-.015zm.366-1.888c-.004-.016-.01-.026-.013-.027-.004 0-.009.01-.009.025-.001.013.005.026.012.027.009 0 .013-.012.01-.025zm-1.027 1.863c.008.015.019.029.025.03.004 0 .006-.015.005-.029-.002-.016-.014-.028-.025-.028-.01 0-.013.01-.005.027zm1.281-.027c.004-.014-.006-.026-.022-.026-.017-.001-.03-.02-.032-.05-.002-.028.01-.044.03-.038.017.006.04.005.052-.003.016-.01.01-.027-.028-.075-.043-.053-.054-.057-.076-.03-.024.031-.026.028-.029-.023-.002-.033-.01-.058-.019-.058a.528.528 0 01-.095-.1c-.045-.056-.068-.098-.055-.098.013 0 .03-.015.035-.036.008-.021.026-.034.042-.028.033.007.045-.03.031-.095-.018-.085-.121-.085-.217-.003-.105.092-.124.14-.073.227a.45.45 0 01.041.084.839.839 0 00.09.138l.086.116-.014.087a.33.33 0 00.004.138c.037.095.233.182.303.135.027-.019-.003-.19-.036-.218-.012-.012-.02-.031-.018-.045zm-.482.104c-.004 0 .001.02.01.042.012.022.028.042.037.042.011 0 .006-.016-.01-.042a.197.197 0 00-.037-.042zm-1.161-.311c-.038-.001-.076.01-.08.026-.007.016.018.028.06.03.039 0 .076-.013.08-.026.007-.017-.018-.029-.06-.03zm1.103-1.291c.012-.02.017-.044.01-.052-.005-.008-.017.007-.027.033-.015.051.013.151.036.123.007-.01.002-.026-.013-.04-.022-.023-.023-.034-.006-.064zm-.797 5.835a.374.374 0 00.037.181.39.39 0 01.048.11c.008.032.026.057.037.056.033-.001.029-.031-.023-.127a.496.496 0 01-.05-.177c-.01-.155-.047-.191-.05-.043zm-.26-6.359c.062-.005.053-.064-.017-.111-.073-.05-.074-.05-.083-.014-.013.044.054.128.1.125zm1.92 1.47c-.024-.034-.028-.05-.02-.081.008-.035.002-.04-.035-.04-.07-.001-.12.089-.1.184.014.057.029.072.117.098.051.016.068.015.055-.008a.095.095 0 01-.002-.07c.01-.034.008-.053-.015-.083zm-1.68-1.545c.005-.011-.01-.05-.03-.088-.023-.038-.039-.052-.036-.03.003.018-.005.028-.02.017-.043-.026-.024.025.028.076.025.025.052.037.058.024zm.17.253a.137.137 0 00-.041-.054c-.03-.023-.036-.023-.028.004.017.061.077.107.068.05zm.145 1.328c-.048-.032-.087-.066-.09-.08 0-.011.01-.014.026-.005.023.012.05-.066.03-.092-.005-.005.01-.027.032-.045l.04-.037c-.019 0-.028 0-.045-.002a.14.14 0 00-.077.022.83.83 0 01-.105.05c-.065.031-.07.037-.037.071.019.02.055.03.078.022.03-.01.04-.004.033.018-.005.016-.025.03-.045.028a.13.13 0 00-.07.025c-.024.021-.042.015-.075-.027-.042-.054-.042-.06-.015-.083.023-.024.017-.027-.032-.031-.033-.001-.063-.016-.065-.03-.008-.083-.128.012-.144.117-.006.027-.016.043-.025.032-.021-.029-.084.225-.069.272.03.082.21.106.31.04.074-.045.14-.04.239.019.09.052.304.079.346.042.1-.13-.154-.268-.24-.326zm30.552-3.52h-7.432v24.298h7.432V10.194zM36.87 0c1.956 0 3.52 1.565 3.52 3.48 0 1.918-1.565 3.482-3.52 3.482-1.878 0-3.443-1.564-3.443-3.481C33.427 1.565 34.992 0 36.87 0z" fill="#EFEFEF"/></svg>